<svg width="24" height="24" viewBox="0 0 24 24" fill="none" xmlns="http://www.w3.org/2000/svg">
<path fill-rule="evenodd" clip-rule="evenodd" d="M4.37167 7.26416C4.39667 7.01643 4.3025 6.77206 4.11917 6.60578L2.2525 4.33842V4H8.05083L12.5325 13.905L16.4725 4H22V4.33842L20.4033 5.88107C20.2658 5.98688 20.1975 6.16071 20.2258 6.33286V17.668C20.1975 17.8393 20.2658 18.0131 20.4033 18.1189L21.9625 19.6616V20H14.1192V19.6616L15.735 18.0811C15.8933 17.9216 15.8933 17.8746 15.8933 17.6302V8.46838L11.4025 19.9631H10.7958L5.56667 8.46838V16.1724C5.52333 16.4957 5.63 16.8223 5.85583 17.0558L7.95667 19.6238V19.9631H2V19.6238L4.10083 17.0558C4.32583 16.8215 4.42583 16.4932 4.37167 16.1724V7.26416Z" fill="#E2E2E2"/>
</svg>
