<svg width="24" height="24" viewBox="0 0 24 24" fill="none" xmlns="http://www.w3.org/2000/svg">
<path fill-rule="evenodd" clip-rule="evenodd" d="M22 12C22 17.5228 17.5228 22 12 22C6.47715 22 2 17.5228 2 12C2 6.47715 6.47715 2 12 2C17.5228 2 22 6.47715 22 12ZM12.3583 9.38244C11.3857 9.787 9.44175 10.6243 6.52654 11.8944C6.05316 12.0827 5.80518 12.2668 5.78261 12.4469C5.74445 12.7512 6.12556 12.8711 6.64453 13.0343C6.71512 13.0565 6.78826 13.0795 6.86325 13.1038C7.37383 13.2698 8.06065 13.464 8.41771 13.4717C8.74159 13.4787 9.10307 13.3452 9.50217 13.0711C12.2259 11.2325 13.632 10.3032 13.7202 10.2831C13.7825 10.269 13.8688 10.2512 13.9273 10.3032C13.9857 10.3552 13.98 10.4536 13.9738 10.48C13.936 10.641 12.4401 12.0318 11.6659 12.7515C11.4246 12.9759 11.2534 13.135 11.2184 13.1714C11.14 13.2528 11.0601 13.3298 10.9833 13.4038C10.5089 13.8611 10.1532 14.204 11.003 14.764C11.4113 15.0331 11.7381 15.2556 12.0641 15.4776C12.4201 15.7201 12.7752 15.9619 13.2346 16.2631C13.3517 16.3398 13.4635 16.4195 13.5724 16.4971C13.9867 16.7925 14.3589 17.0578 14.8188 17.0155C15.086 16.9909 15.362 16.7397 15.5022 15.9903C15.8335 14.2193 16.4847 10.382 16.6351 8.80081C16.6483 8.66227 16.6317 8.48498 16.6184 8.40715C16.6051 8.32931 16.5773 8.21842 16.4761 8.13633C16.3563 8.03911 16.1713 8.01861 16.0886 8.02007C15.7125 8.0267 15.1354 8.22735 12.3583 9.38244Z" fill="#E2E2E2"/>
</svg>
