<svg width="26" height="26" viewBox="0 0 26 26" fill="none" xmlns="http://www.w3.org/2000/svg">
<path d="M9.69694 19.8516L9.82626 19.3686C9.7082 19.337 9.58265 19.3497 9.47333 19.4044L9.69694 19.8516ZM4.6801 22.36L4.18512 22.2893C4.15882 22.4734 4.23687 22.6569 4.38774 22.7656C4.53861 22.8744 4.73737 22.8904 4.9037 22.8072L4.6801 22.36ZM5.35946 17.6045L5.85443 17.6752C5.87848 17.5069 5.81532 17.3378 5.68676 17.2265L5.35946 17.6045ZM13.0001 20.78C18.9101 20.78 23.9001 16.9295 23.9001 11.96H22.9001C22.9001 16.1805 18.5776 19.78 13.0001 19.78V20.78ZM9.56761 20.3346C10.6478 20.6238 11.802 20.78 13.0001 20.78V19.78C11.8888 19.78 10.8216 19.6351 9.82626 19.3686L9.56761 20.3346ZM4.9037 22.8072L9.92054 20.2988L9.47333 19.4044L4.45649 21.9128L4.9037 22.8072ZM4.86448 17.5338L4.18512 22.2893L5.17507 22.4307L5.85443 17.6752L4.86448 17.5338ZM2.1001 11.96C2.1001 14.3077 3.22935 16.4214 5.03215 17.9825L5.68676 17.2265C4.06393 15.8213 3.1001 13.9692 3.1001 11.96H2.1001ZM13.0001 3.14C7.09008 3.14 2.1001 6.9905 2.1001 11.96H3.1001C3.1001 7.73948 7.4226 4.14 13.0001 4.14V3.14ZM23.9001 11.96C23.9001 6.9905 18.9101 3.14 13.0001 3.14V4.14C18.5776 4.14 22.9001 7.73948 22.9001 11.96H23.9001Z" fill="#E2E2E2"/>
</svg>
