<svg width="31" height="26" viewBox="0 0 31 26" fill="none" xmlns="http://www.w3.org/2000/svg">
<path d="M31 19.4962H27.5596V22.7481H31V19.4962Z" fill="#881D13"/>
<path d="M31 16.2494H27.5596V19.4962H31V16.2494Z" fill="#881D13"/>
<path d="M31 13.0026H27.5596V16.2494H31V13.0026Z" fill="#881D13"/>
<path d="M31 9.75061H27.5596V13.0025H31V9.75061Z" fill="#881D13"/>
<path d="M31 6.49878H27.5596V9.74563H31V6.49878Z" fill="#881D13"/>
<path d="M31 3.25183H27.5596V6.49868H31V3.25183Z" fill="#881D13"/>
<path d="M31 0H27.5596V3.25189H31V0Z" fill="#7F88C3"/>
<path d="M27.5545 22.7532H24.1089V26H27.5545V22.7532Z" fill="#881D13"/>
<path d="M27.5545 19.4962H24.1089V22.7481H27.5545V19.4962Z" fill="#F4E581"/>
<path d="M27.5545 16.2494H24.1089V19.4962H27.5545V16.2494Z" fill="#F4E581"/>
<path d="M27.5545 13.0026H24.1089V16.2494H27.5545V13.0026Z" fill="#F4E581"/>
<path d="M27.5545 9.75061H24.1089V13.0025H27.5545V9.75061Z" fill="#F4E581"/>
<path d="M27.5545 6.49878H24.1089V9.74563H27.5545V6.49878Z" fill="#881D13"/>
<path d="M24.1089 22.7532H20.6685V26H24.1089V22.7532Z" fill="#881D13"/>
<path d="M24.1089 19.4962H20.6685V22.7481H24.1089V19.4962Z" fill="#F2B240"/>
<path d="M24.1089 16.2494H20.6685V19.4962H24.1089V16.2494Z" fill="#F2B240"/>
<path d="M24.1089 13.0026H20.6685V16.2494H24.1089V13.0026Z" fill="#F2B240"/>
<path d="M24.1089 9.75061H20.6685V13.0025H24.1089V9.75061Z" fill="#881D13"/>
<path d="M20.6685 22.7532H17.2229V26H20.6685V22.7532Z" fill="#881D13"/>
<path d="M20.6685 19.4962H17.2229V22.7481H20.6685V19.4962Z" fill="#F2B240"/>
<path d="M20.6685 16.2494H17.2229V19.4962H20.6685V16.2494Z" fill="#F2B240"/>
<path d="M20.6685 13.0026H17.2229V16.2494H20.6685V13.0026Z" fill="#F2B240"/>
<path d="M20.6685 9.75061H17.2229V13.0025H20.6685V9.75061Z" fill="#F2B240"/>
<path d="M20.6685 6.49878H17.2229V9.74563H20.6685V6.49878Z" fill="#881D13"/>
<path d="M17.2175 22.7532H13.7771V26H17.2175V22.7532Z" fill="#881D13"/>
<path d="M17.2175 19.4962H13.7771V22.7481H17.2175V19.4962Z" fill="#F2B240"/>
<path d="M17.2175 16.2494H13.7771V19.4962H17.2175V16.2494Z" fill="#F2B240"/>
<path d="M17.2175 13.0026H13.7771V16.2494H17.2175V13.0026Z" fill="#F2B240"/>
<path d="M17.2175 9.75061H13.7771V13.0025H17.2175V9.75061Z" fill="#F2B240"/>
<path d="M17.2175 6.49878H13.7771V9.74563H17.2175V6.49878Z" fill="#F2B240"/>
<path d="M17.2175 3.25183H13.7771V6.49868H17.2175V3.25183Z" fill="#881D13"/>
<path d="M17.2175 0H13.7771V3.25189H17.2175V0Z" fill="#3D54A4"/>
<path d="M13.7771 22.7532H10.3315V26H13.7771V22.7532Z" fill="#881D13"/>
<path d="M13.7771 19.4962H10.3315V22.7481H13.7771V19.4962Z" fill="#C56741"/>
<path d="M13.7771 16.2494H10.3315V19.4962H13.7771V16.2494Z" fill="#F2B240"/>
<path d="M13.7771 13.0026H10.3315V16.2494H13.7771V13.0026Z" fill="#F2B240"/>
<path d="M13.7771 9.75061H10.3315V13.0025H13.7771V9.75061Z" fill="#F2B240"/>
<path d="M13.7771 6.49878H10.3315V9.74563H13.7771V6.49878Z" fill="#881D13"/>
<path d="M10.3316 22.7532H6.89111V26H10.3316V22.7532Z" fill="#881D13"/>
<path d="M10.3316 19.4962H6.89111V22.7481H10.3316V19.4962Z" fill="#C56741"/>
<path d="M10.3316 16.2494H6.89111V19.4962H10.3316V16.2494Z" fill="#F2B240"/>
<path d="M10.3316 13.0026H6.89111V16.2494H10.3316V13.0026Z" fill="#F2B240"/>
<path d="M10.3316 9.75061H6.89111V13.0025H10.3316V9.75061Z" fill="#881D13"/>
<path d="M6.886 22.7532H3.44556V26H6.886V22.7532Z" fill="#881D13"/>
<path d="M6.886 19.4962H3.44556V22.7481H6.886V19.4962Z" fill="#C56741"/>
<path d="M6.886 16.2494H3.44556V19.4962H6.886V16.2494Z" fill="#C56741"/>
<path d="M6.886 13.0026H3.44556V16.2494H6.886V13.0026Z" fill="#C56741"/>
<path d="M6.886 9.75061H3.44556V13.0025H6.886V9.75061Z" fill="#C56741"/>
<path d="M6.886 6.49878H3.44556V9.74563H6.886V6.49878Z" fill="#881D13"/>
<path d="M3.44559 19.4962H0V22.7481H3.44559V19.4962Z" fill="#881D13"/>
<path d="M3.44559 16.2494H0V19.4962H3.44559V16.2494Z" fill="#881D13"/>
<path d="M3.44559 13.0026H0V16.2494H3.44559V13.0026Z" fill="#881D13"/>
<path d="M3.44559 9.75061H0V13.0025H3.44559V9.75061Z" fill="#881D13"/>
<path d="M3.44559 6.49878H0V9.74563H3.44559V6.49878Z" fill="#881D13"/>
<path d="M3.44559 3.25183H0V6.49868H3.44559V3.25183Z" fill="#881D13"/>
<path d="M3.44559 0H0V3.25189H3.44559V0Z" fill="#21458A"/>
</svg>
