<svg width="34" height="32" viewBox="0 0 34 32" fill="none" xmlns="http://www.w3.org/2000/svg">
<path d="M33.4999 14.5466H30.5032V17.4533H33.4999V14.5466Z" fill="#881D13"/>
<path d="M33.4999 11.6355H30.5032V14.5466H33.4999V11.6355Z" fill="#881D13"/>
<path d="M30.5032 29.0934H27.502V32H30.5032V29.0934Z" fill="#881D13"/>
<path d="M30.5032 26.1823H27.502V29.0934H30.5032V26.1823Z" fill="#881D13"/>
<path d="M30.5032 23.2756H27.502V26.1823H30.5032V23.2756Z" fill="#881D13"/>
<path d="M30.5032 17.4534H27.502V20.3645H30.5032V17.4534Z" fill="#881D13"/>
<path d="M30.5032 14.5466H27.502V17.4533H30.5032V14.5466Z" fill="#F4E581"/>
<path d="M30.5032 11.6355H27.502V14.5466H30.5032V11.6355Z" fill="#881D13"/>
<path d="M27.5021 29.0934H24.5054V32H27.5021V29.0934Z" fill="#881D13"/>
<path d="M27.5021 26.1823H24.5054V29.0934H27.5021V26.1823Z" fill="#C56741"/>
<path d="M27.5021 23.2756H24.5054V26.1823H27.5021V23.2756Z" fill="#F2B240"/>
<path d="M27.5021 20.369H24.5054V23.2757H27.5021V20.369Z" fill="#881D13"/>
<path d="M27.5021 17.4534H24.5054V20.3645H27.5021V17.4534Z" fill="#F2B240"/>
<path d="M27.5021 14.5466H24.5054V17.4533H27.5021V14.5466Z" fill="#F4E581"/>
<path d="M27.5021 11.6355H24.5054V14.5466H27.5021V11.6355Z" fill="#881D13"/>
<path d="M24.5007 29.0934H21.4995V32H24.5007V29.0934Z" fill="#881D13"/>
<path d="M24.5007 26.1823H21.4995V29.0934H24.5007V26.1823Z" fill="#C56741"/>
<path d="M24.5007 23.2756H21.4995V26.1823H24.5007V23.2756Z" fill="#F2B240"/>
<path d="M24.5007 20.369H21.4995V23.2757H24.5007V20.369Z" fill="#F2B240"/>
<path d="M24.5007 17.4534H21.4995V20.3645H24.5007V17.4534Z" fill="#F2B240"/>
<path d="M24.5007 14.5466H21.4995V17.4533H24.5007V14.5466Z" fill="#F2B240"/>
<path d="M24.5007 11.6355H21.4995V14.5466H24.5007V11.6355Z" fill="#F4E581"/>
<path d="M24.5007 8.72888H21.4995V11.6355H24.5007V8.72888Z" fill="#881D13"/>
<path d="M21.4997 26.1823H18.5029V29.0934H21.4997V26.1823Z" fill="#881D13"/>
<path d="M21.4997 23.2756H18.5029V26.1823H21.4997V23.2756Z" fill="#F2B240"/>
<path d="M21.4997 20.369H18.5029V23.2757H21.4997V20.369Z" fill="#F2B240"/>
<path d="M21.4997 17.4534H18.5029V20.3645H21.4997V17.4534Z" fill="#F2B240"/>
<path d="M21.4997 14.5466H18.5029V17.4533H21.4997V14.5466Z" fill="#F2B240"/>
<path d="M21.4997 11.6355H18.5029V14.5466H21.4997V11.6355Z" fill="#F2B240"/>
<path d="M21.4997 8.72888H18.5029V11.6355H21.4997V8.72888Z" fill="#F4E581"/>
<path d="M21.4997 5.81775H18.5029V8.72438H21.4997V5.81775Z" fill="#881D13"/>
<path d="M21.4997 2.90662H18.5029V5.81776H21.4997V2.90662Z" fill="#881D13"/>
<path d="M18.5028 23.2756H15.5061V26.1823H18.5028V23.2756Z" fill="#881D13"/>
<path d="M18.5028 20.369H15.5061V23.2757H18.5028V20.369Z" fill="#F2B240"/>
<path d="M18.5028 17.4534H15.5061V20.3645H18.5028V17.4534Z" fill="#F2B240"/>
<path d="M18.5028 14.5466H15.5061V17.4533H18.5028V14.5466Z" fill="#F2B240"/>
<path d="M18.5028 11.6355H15.5061V14.5466H18.5028V11.6355Z" fill="#F2B240"/>
<path d="M18.5028 8.72888H15.5061V11.6355H18.5028V8.72888Z" fill="#F4E581"/>
<path d="M18.5028 5.81775H15.5061V8.72438H18.5028V5.81775Z" fill="#F4E581"/>
<path d="M18.5028 2.90662H15.5061V5.81776H18.5028V2.90662Z" fill="#F4E581"/>
<path d="M18.5028 0H15.5061V2.90663H18.5028V0Z" fill="#881D13"/>
<path d="M15.5017 26.1823H12.5005V29.0934H15.5017V26.1823Z" fill="#881D13"/>
<path d="M15.5017 23.2756H12.5005V26.1823H15.5017V23.2756Z" fill="#F2B240"/>
<path d="M15.5017 20.369H12.5005V23.2757H15.5017V20.369Z" fill="#F2B240"/>
<path d="M15.5017 17.4534H12.5005V20.3645H15.5017V17.4534Z" fill="#F2B240"/>
<path d="M15.5017 14.5466H12.5005V17.4533H15.5017V14.5466Z" fill="#F2B240"/>
<path d="M15.5017 11.6355H12.5005V14.5466H15.5017V11.6355Z" fill="#F2B240"/>
<path d="M15.5017 8.72888H12.5005V11.6355H15.5017V8.72888Z" fill="#F2B240"/>
<path d="M15.5017 5.81775H12.5005V8.72438H15.5017V5.81775Z" fill="#881D13"/>
<path d="M15.5017 2.90662H12.5005V5.81776H15.5017V2.90662Z" fill="#881D13"/>
<path d="M12.5004 29.0934H9.50366V32H12.5004V29.0934Z" fill="#881D13"/>
<path d="M12.5004 26.1823H9.50366V29.0934H12.5004V26.1823Z" fill="#C56741"/>
<path d="M12.5004 23.2756H9.50366V26.1823H12.5004V23.2756Z" fill="#F2B240"/>
<path d="M12.5004 20.369H9.50366V23.2757H12.5004V20.369Z" fill="#F2B240"/>
<path d="M12.5004 17.4534H9.50366V20.3645H12.5004V17.4534Z" fill="#F2B240"/>
<path d="M12.5004 14.5466H9.50366V17.4533H12.5004V14.5466Z" fill="#F2B240"/>
<path d="M12.5004 11.6355H9.50366V14.5466H12.5004V11.6355Z" fill="#F2B240"/>
<path d="M12.5004 8.72888H9.50366V11.6355H12.5004V8.72888Z" fill="#881D13"/>
<path d="M9.50366 29.0934H6.50244V32H9.50366V29.0934Z" fill="#881D13"/>
<path d="M9.50366 26.1823H6.50244V29.0934H9.50366V26.1823Z" fill="#C56741"/>
<path d="M9.50366 23.2756H6.50244V26.1823H9.50366V23.2756Z" fill="#C56741"/>
<path d="M9.50366 20.369H6.50244V23.2757H9.50366V20.369Z" fill="#881D13"/>
<path d="M9.50366 17.4534H6.50244V20.3645H9.50366V17.4534Z" fill="#F2B240"/>
<path d="M9.50366 14.5466H6.50244V17.4533H9.50366V14.5466Z" fill="#F2B240"/>
<path d="M9.50366 11.6355H6.50244V14.5466H9.50366V11.6355Z" fill="#881D13"/>
<path d="M6.49796 29.0934H3.50122V32H6.49796V29.0934Z" fill="#881D13"/>
<path d="M6.49796 26.1823H3.50122V29.0934H6.49796V26.1823Z" fill="#881D13"/>
<path d="M6.49796 23.2756H3.50122V26.1823H6.49796V23.2756Z" fill="#881D13"/>
<path d="M6.49796 17.4534H3.50122V20.3645H6.49796V17.4534Z" fill="#881D13"/>
<path d="M6.49796 14.5466H3.50122V17.4533H6.49796V14.5466Z" fill="#C56741"/>
<path d="M6.49796 11.6355H3.50122V14.5466H6.49796V11.6355Z" fill="#881D13"/>
<path d="M3.50122 14.5466H0.5V17.4533H3.50122V14.5466Z" fill="#881D13"/>
<path d="M3.50122 11.6355H0.5V14.5466H3.50122V11.6355Z" fill="#881D13"/>
</svg>
