<svg width="36" height="36" viewBox="0 0 36 36" fill="none" xmlns="http://www.w3.org/2000/svg">
<path d="M15.0002 18.3923H15.5002C15.5002 18.2746 15.4587 18.1606 15.3829 18.0705L15.0002 18.3923ZM5.92507 7.60166L5.54241 7.92348H5.54241L5.92507 7.60166ZM30.1604 7.60166L29.7777 7.27983L30.1604 7.60166ZM21.0002 18.4934L20.6176 18.1715C20.5418 18.2617 20.5002 18.3756 20.5002 18.4934H21.0002ZM21.0002 25.5003L21.3002 25.9003C21.4261 25.8058 21.5002 25.6576 21.5002 25.5003H21.0002ZM15.0002 30.0003H14.5002C14.5002 30.1897 14.6072 30.3628 14.7766 30.4475C14.946 30.5322 15.1487 30.5139 15.3002 30.4003L15.0002 30.0003ZM15.3829 18.0705L6.30773 7.27983L5.54241 7.92348L14.6176 18.7141L15.3829 18.0705ZM6.30773 7.27983C6.0342 6.95459 6.26542 6.45801 6.69039 6.45801V5.45801C5.41546 5.45801 4.72181 6.94775 5.54241 7.92348L6.30773 7.27983ZM6.69039 6.45801H29.3951V5.45801H6.69039V6.45801ZM29.3951 6.45801C29.82 6.45801 30.0513 6.95459 29.7777 7.27983L30.543 7.92348C31.3637 6.94775 30.67 5.45801 29.3951 5.45801V6.45801ZM29.7777 7.27983L20.6176 18.1715L21.3829 18.8152L30.543 7.92348L29.7777 7.27983ZM20.5002 18.4934V25.5003H21.5002V18.4934H20.5002ZM20.7002 25.1003L14.7002 29.6003L15.3002 30.4003L21.3002 25.9003L20.7002 25.1003ZM15.5002 30.0003V18.3923H14.5002V30.0003H15.5002Z" fill="#575758"/>
</svg>
