<svg width="313" height="219" viewBox="0 0 313 219" fill="none" xmlns="http://www.w3.org/2000/svg">
<g opacity="0.1">
<path d="M235.244 102.347C236.355 105.011 236.355 108.008 235.244 110.672L210.675 169.618C209.571 172.266 207.46 174.368 204.807 175.46L145.4 199.912C142.762 200.998 139.802 200.998 137.164 199.912L77.7583 175.46C75.105 174.368 72.9942 172.266 71.8903 169.618L47.3203 110.672C46.21 108.008 46.21 105.011 47.3203 102.347L71.8903 43.4018C72.9942 40.7534 75.105 38.652 77.7583 37.5599L137.164 13.1072C139.802 12.0213 142.762 12.0213 145.4 13.1072L204.807 37.5599C207.46 38.652 209.571 40.7534 210.675 43.4019L235.244 102.347Z" fill="#DA5A5A"/>
<path d="M234.932 102.477C236.008 105.058 236.008 107.962 234.932 110.542L210.363 169.488C209.293 172.053 207.248 174.089 204.678 175.147L145.272 199.6C142.716 200.652 139.849 200.652 137.293 199.6L77.887 175.147C75.3166 174.089 73.2718 172.053 72.2023 169.488L47.6324 110.542C46.5567 107.962 46.5567 105.058 47.6324 102.477L72.2023 43.5319C73.2718 40.9663 75.3166 38.9305 77.887 37.8725L137.293 13.4198C139.849 12.3679 142.716 12.3679 145.272 13.4198L204.678 37.8725C207.248 38.9305 209.293 40.9663 210.363 43.5319L234.932 102.477Z" stroke="#454F65" stroke-opacity="0.3" stroke-width="0.676173"/>
<path d="M215.844 102.867C216.816 105.198 216.816 107.82 215.844 110.151L196.588 156.349C195.622 158.666 193.775 160.505 191.453 161.461L144.886 180.628C142.578 181.579 139.988 181.579 137.68 180.628L91.1129 161.461C88.7913 160.505 86.9444 158.666 85.9784 156.349L66.7221 110.151C65.7505 107.82 65.7505 105.198 66.7221 102.867L85.9785 56.669C86.9444 54.3516 88.7913 52.5129 91.113 51.5573L137.68 32.3894C139.988 31.4393 142.578 31.4393 144.886 32.3894L191.453 51.5573C193.775 52.5129 195.622 54.3516 196.588 56.669L215.844 102.867Z" fill="#D39213"/>
<path d="M215.532 102.997C216.469 105.245 216.469 107.773 215.532 110.021L196.276 156.219C195.344 158.453 193.563 160.226 191.325 161.148L144.758 180.316C142.532 181.232 140.034 181.232 137.809 180.316L91.2416 161.148C89.0029 160.226 87.2219 158.453 86.2905 156.219L67.0341 110.021C66.0973 107.773 66.0973 105.245 67.0341 102.997L86.2905 56.7991C87.222 54.5645 89.0029 52.7914 91.2416 51.8699L137.809 32.7021C140.034 31.7859 142.532 31.7859 144.758 32.7021L191.325 51.8699C193.563 52.7914 195.344 54.5645 196.276 56.7991L215.532 102.997Z" stroke="#454F65" stroke-opacity="0.3" stroke-width="0.676173"/>
<path d="M193.571 103.387C194.404 105.385 194.404 107.633 193.571 109.63L180.469 141.063C179.641 143.049 178.058 144.626 176.068 145.445L144.37 158.492C142.392 159.306 140.172 159.306 138.193 158.492L106.496 145.445C104.506 144.626 102.922 143.049 102.095 141.063L88.9926 109.63C88.1598 107.633 88.1598 105.385 88.9926 103.387L102.095 71.9541C102.922 69.9677 104.506 68.3917 106.496 67.5726L138.193 54.5252C140.172 53.7108 142.392 53.7108 144.37 54.5252L176.068 67.5726C178.058 68.3917 179.641 69.9677 180.469 71.9541L193.571 103.387Z" fill="#182030"/>
<path d="M193.259 103.517C194.057 105.432 194.057 107.586 193.259 109.5L180.157 140.933C179.363 142.837 177.846 144.347 175.939 145.132L144.242 158.179C142.345 158.96 140.218 158.96 138.322 158.179L106.624 145.132C104.717 144.347 103.2 142.837 102.407 140.933L89.3047 109.5C88.5066 107.586 88.5066 105.432 89.3047 103.517L102.407 72.0841C103.2 70.1806 104.717 68.6702 106.624 67.8852L138.322 54.8378C140.218 54.0574 142.345 54.0574 144.242 54.8378L175.939 67.8852C177.846 68.6702 179.363 70.1806 180.157 72.0841L193.259 103.517Z" stroke="white" stroke-opacity="0.05" stroke-width="0.676173"/>
<path d="M193.259 103.517C194.057 105.432 194.057 107.586 193.259 109.5L180.157 140.933C179.363 142.837 177.846 144.347 175.939 145.132L144.242 158.179C142.345 158.96 140.218 158.96 138.322 158.179L106.624 145.132C104.717 144.347 103.2 142.837 102.407 140.933L89.3047 109.5C88.5066 107.586 88.5066 105.432 89.3047 103.517L102.407 72.0841C103.2 70.1806 104.717 68.6702 106.624 67.8852L138.322 54.8378C140.218 54.0574 142.345 54.0574 144.242 54.8378L175.939 67.8852C177.846 68.6702 179.363 70.1806 180.157 72.0841L193.259 103.517Z" stroke="#454F65" stroke-opacity="0.3" stroke-width="0.676173"/>
<path d="M173.954 103.388C174.786 105.386 174.786 107.634 173.954 109.631L166.598 127.279C165.77 129.265 164.187 130.842 162.197 131.661L144.371 138.998C142.392 139.812 140.172 139.812 138.194 138.998L120.368 131.661C118.378 130.842 116.795 129.265 115.967 127.279L108.611 109.631C107.778 107.634 107.778 105.386 108.611 103.388L115.967 85.7402C116.795 83.7539 118.378 82.1778 120.368 81.3587L138.194 74.0213C140.172 73.2069 142.392 73.2069 144.371 74.0213L162.197 81.3587C164.187 82.1778 165.77 83.7539 166.598 85.7402L173.954 103.388Z" fill="#E2E2E2"/>
<path d="M173.642 103.518C174.44 105.433 174.44 107.587 173.642 109.501L166.286 127.149C165.492 129.053 163.975 130.563 162.068 131.348L144.242 138.685C142.346 139.466 140.219 139.466 138.323 138.685L120.497 131.348C118.59 130.563 117.073 129.053 116.279 127.149L108.923 109.501C108.125 107.587 108.125 105.433 108.923 103.518L116.279 85.8703C117.073 83.9667 118.59 82.4563 120.497 81.6713L138.323 74.3339C140.219 73.5535 142.346 73.5535 144.242 74.3339L162.068 81.6713C163.975 82.4563 165.492 83.9667 166.286 85.8703L173.642 103.518Z" stroke="white" stroke-opacity="0.05" stroke-width="0.676173"/>
<path d="M173.642 103.518C174.44 105.433 174.44 107.587 173.642 109.501L166.286 127.149C165.492 129.053 163.975 130.563 162.068 131.348L144.242 138.685C142.346 139.466 140.219 139.466 138.323 138.685L120.497 131.348C118.59 130.563 117.073 129.053 116.279 127.149L108.923 109.501C108.125 107.587 108.125 105.433 108.923 103.518L116.279 85.8703C117.073 83.9667 118.59 82.4563 120.497 81.6713L138.323 74.3339C140.219 73.5535 142.346 73.5535 144.242 74.3339L162.068 81.6713C163.975 82.4563 165.492 83.9667 166.286 85.8703L173.642 103.518Z" stroke="#454F65" stroke-opacity="0.3" stroke-width="0.676173"/>
<path d="M160.422 106.51L154.816 119.959L141.282 125.529L127.749 119.959L122.143 106.51L127.749 93.0609L141.282 87.4902L154.816 93.0609L160.422 106.51Z" fill="#575758"/>
<path d="M154.558 93.3203L160.056 106.51L154.558 119.699L141.282 125.164L128.007 119.699L122.509 106.51L128.007 93.3203L141.282 87.8558L154.558 93.3203Z" stroke="#454F65" stroke-opacity="0.3" stroke-width="0.676173"/>
<path d="M117.4 3.28105H116.068V2.27355H119.935V3.28105H118.597V7H117.4V3.28105ZM121.658 2.27355H125.012V3.28105H122.855V4.16684H124.43V5.10672H122.855V5.9925H125.012V7H121.658V2.27355ZM129.182 7.10143C128.668 7.10143 128.215 7.00225 127.823 6.80391C127.436 6.60557 127.136 6.32157 126.924 5.95193C126.712 5.57778 126.606 5.14053 126.606 4.64016C126.606 4.13979 126.712 3.70479 126.924 3.33514C127.136 2.961 127.436 2.67475 127.823 2.4764C128.215 2.27355 128.668 2.17213 129.182 2.17213C129.52 2.17213 129.822 2.20594 130.088 2.27355C130.354 2.34117 130.6 2.4471 130.825 2.59135V3.72732C130.627 3.56955 130.402 3.4546 130.149 3.38248C129.901 3.31035 129.615 3.27429 129.291 3.27429C128.826 3.27429 128.468 3.396 128.215 3.63942C127.963 3.87834 127.837 4.21191 127.837 4.64016C127.837 5.0684 127.963 5.40423 128.215 5.64765C128.472 5.89108 128.831 6.01279 129.291 6.01279C129.615 6.01279 129.906 5.97447 130.163 5.89784C130.42 5.82121 130.659 5.69949 130.88 5.53271V6.66191C130.451 6.95492 129.886 7.10143 129.182 7.10143ZM132.703 2.27355H133.9V4.09922H135.752V2.27355H136.949V7H135.752V5.09319H133.9V7H132.703V2.27355ZM138.909 2.27355H140.092L141.83 5.08643V2.27355H143.026V7H141.85L140.105 4.18036V7H138.909V2.27355ZM144.989 2.27355H146.186V7H144.989V2.27355ZM150.585 7.10143C150.071 7.10143 149.618 7.00225 149.226 6.80391C148.838 6.60557 148.538 6.32157 148.326 5.95193C148.115 5.57778 148.009 5.14053 148.009 4.64016C148.009 4.13979 148.115 3.70479 148.326 3.33514C148.538 2.961 148.838 2.67475 149.226 2.4764C149.618 2.27355 150.071 2.17213 150.585 2.17213C150.923 2.17213 151.225 2.20594 151.491 2.27355C151.757 2.34117 152.003 2.4471 152.228 2.59135V3.72732C152.03 3.56955 151.804 3.4546 151.552 3.38248C151.304 3.31035 151.018 3.27429 150.693 3.27429C150.229 3.27429 149.87 3.396 149.618 3.63942C149.365 3.87834 149.239 4.21191 149.239 4.64016C149.239 5.0684 149.365 5.40423 149.618 5.64765C149.875 5.89108 150.233 6.01279 150.693 6.01279C151.018 6.01279 151.308 5.97447 151.565 5.89784C151.822 5.82121 152.061 5.69949 152.282 5.53271V6.66191C151.854 6.95492 151.288 7.10143 150.585 7.10143ZM155.692 2.27355H156.868L158.755 7H157.531L157.152 6.02631H155.408L155.029 7H153.798L155.692 2.27355ZM156.855 5.10672L156.28 3.51771L155.698 5.10672H156.855ZM160.582 2.27355H161.779V5.9925H163.834V7H160.582V2.27355Z" fill="#E2E2E2"/>
<path d="M219.745 40.1014C219.231 40.1014 218.778 40.0023 218.386 39.8039C217.998 39.6056 217.699 39.3216 217.487 38.9519C217.275 38.5778 217.169 38.1405 217.169 37.6402C217.169 37.1398 217.275 36.7048 217.487 36.3351C217.699 35.961 217.998 35.6747 218.386 35.4764C218.778 35.2736 219.231 35.1721 219.745 35.1721C220.083 35.1721 220.385 35.2059 220.651 35.2736C220.917 35.3412 221.163 35.4471 221.388 35.5914V36.7273C221.19 36.5696 220.965 36.4546 220.712 36.3825C220.464 36.3104 220.178 36.2743 219.853 36.2743C219.389 36.2743 219.031 36.396 218.778 36.6394C218.526 36.8783 218.4 37.2119 218.4 37.6402C218.4 38.0684 218.526 38.4042 218.778 38.6477C219.035 38.8911 219.394 39.0128 219.853 39.0128C220.178 39.0128 220.469 38.9745 220.726 38.8978C220.983 38.8212 221.222 38.6995 221.442 38.5327V39.6619C221.014 39.9549 220.448 40.1014 219.745 40.1014ZM223.266 35.2736H225.389C225.943 35.2736 226.376 35.4133 226.687 35.6928C227.003 35.9723 227.16 36.3735 227.16 36.8964C227.16 37.248 227.084 37.5477 226.931 37.7957C226.777 38.0436 226.561 38.2284 226.281 38.3501L227.12 40H225.889L225.139 38.5192H224.463V40H223.266V35.2736ZM225.179 37.5117C225.418 37.5117 225.603 37.4666 225.734 37.3765C225.864 37.2818 225.93 37.1218 225.93 36.8964C225.93 36.662 225.864 36.5019 225.734 36.4163C225.608 36.3261 225.423 36.2811 225.179 36.2811H224.463V37.5117H225.179ZM228.989 35.2736H232.343V36.2811H230.186V37.1668H231.762V38.1067H230.186V38.9925H232.343V40H228.989V35.2736ZM235.93 35.2736H237.106L238.993 40H237.769L237.39 39.0263H235.646L235.267 40H234.036L235.93 35.2736ZM237.093 38.1067L236.518 36.5177L235.936 38.1067H237.093ZM241.07 36.2811H239.738V35.2736H243.606V36.2811H242.267V40H241.07V36.2811ZM245.328 35.2736H246.525V40H245.328V35.2736ZM248.348 35.2736H249.626L250.83 38.4178L252.033 35.2736H253.305L251.418 40H250.242L248.348 35.2736ZM255.132 35.2736H256.328V40H255.132V35.2736ZM259.382 36.2811H258.05V35.2736H261.918V36.2811H260.579V40H259.382V36.2811ZM265.184 38.2014L263.439 35.2736H264.717L265.786 37.106L266.901 35.2736H268.173L266.381 38.2014V40H265.184V38.2014Z" fill="#E2E2E2"/>
<path d="M241.745 109.101C241.231 109.101 240.778 109.002 240.386 108.804C239.998 108.606 239.699 108.322 239.487 107.952C239.275 107.578 239.169 107.141 239.169 106.64C239.169 106.14 239.275 105.705 239.487 105.335C239.699 104.961 239.998 104.675 240.386 104.476C240.778 104.274 241.231 104.172 241.745 104.172C242.083 104.172 242.385 104.206 242.651 104.274C242.917 104.341 243.163 104.447 243.388 104.591V105.727C243.19 105.57 242.965 105.455 242.712 105.382C242.464 105.31 242.178 105.274 241.853 105.274C241.389 105.274 241.031 105.396 240.778 105.639C240.526 105.878 240.4 106.212 240.4 106.64C240.4 107.068 240.526 107.404 240.778 107.648C241.035 107.891 241.394 108.013 241.853 108.013C242.178 108.013 242.469 107.974 242.726 107.898C242.983 107.821 243.222 107.699 243.442 107.533V108.662C243.014 108.955 242.448 109.101 241.745 109.101ZM247.501 109.101C247.023 109.101 246.591 108.998 246.203 108.79C245.82 108.583 245.515 108.295 245.29 107.925C245.069 107.551 244.959 107.122 244.959 106.64C244.959 106.158 245.069 105.73 245.29 105.355C245.515 104.981 245.82 104.691 246.203 104.483C246.591 104.276 247.023 104.172 247.501 104.172C247.975 104.172 248.403 104.276 248.786 104.483C249.174 104.691 249.478 104.981 249.699 105.355C249.92 105.73 250.03 106.158 250.03 106.64C250.03 107.122 249.92 107.551 249.699 107.925C249.478 108.295 249.174 108.583 248.786 108.79C248.403 108.998 247.975 109.101 247.501 109.101ZM247.501 107.979C247.74 107.979 247.959 107.925 248.157 107.817C248.355 107.709 248.513 107.553 248.63 107.35C248.748 107.147 248.806 106.911 248.806 106.64C248.806 106.37 248.748 106.135 248.63 105.937C248.518 105.734 248.362 105.579 248.164 105.47C247.965 105.358 247.745 105.301 247.501 105.301C247.253 105.301 247.03 105.358 246.832 105.47C246.633 105.579 246.476 105.734 246.358 105.937C246.246 106.135 246.189 106.37 246.189 106.64C246.189 106.911 246.246 107.147 246.358 107.35C246.476 107.553 246.633 107.709 246.832 107.817C247.035 107.925 247.258 107.979 247.501 107.979ZM251.854 104.274H253.004L254.37 107.201L255.742 104.274H256.885V109H255.769V106.627L254.64 109H254.099L252.977 106.627V109H251.854V104.274ZM258.846 104.274H259.995L261.361 107.201L262.734 104.274H263.877V109H262.761V106.627L261.632 109H261.091L259.968 106.627V109H258.846V104.274ZM267.954 109.101C267.242 109.101 266.705 108.912 266.345 108.533C265.984 108.15 265.804 107.645 265.804 107.019V104.274H267V107.032C267 107.348 267.084 107.587 267.251 107.749C267.422 107.911 267.656 107.993 267.954 107.993C268.251 107.993 268.484 107.911 268.65 107.749C268.817 107.587 268.901 107.348 268.901 107.032V104.274H270.097V107.019C270.097 107.65 269.917 108.155 269.556 108.533C269.2 108.912 268.666 109.101 267.954 109.101ZM272.023 104.274H273.207L274.944 107.086V104.274H276.141V109H274.965L273.22 106.18V109H272.023V104.274ZM278.104 104.274H279.3V109H278.104V104.274ZM283.7 109.101C283.186 109.101 282.733 109.002 282.341 108.804C281.953 108.606 281.653 108.322 281.441 107.952C281.229 107.578 281.123 107.141 281.123 106.64C281.123 106.14 281.229 105.705 281.441 105.335C281.653 104.961 281.953 104.675 282.341 104.476C282.733 104.274 283.186 104.172 283.7 104.172C284.038 104.172 284.34 104.206 284.606 104.274C284.872 104.341 285.117 104.447 285.343 104.591V105.727C285.144 105.57 284.919 105.455 284.667 105.382C284.419 105.31 284.132 105.274 283.808 105.274C283.344 105.274 282.985 105.396 282.733 105.639C282.48 105.878 282.354 106.212 282.354 106.64C282.354 107.068 282.48 107.404 282.733 107.648C282.99 107.891 283.348 108.013 283.808 108.013C284.132 108.013 284.423 107.974 284.68 107.898C284.937 107.821 285.176 107.699 285.397 107.533V108.662C284.969 108.955 284.403 109.101 283.7 109.101ZM288.806 104.274H289.983L291.87 109H290.646L290.267 108.026H288.522L288.144 109H286.913L288.806 104.274ZM289.969 107.107L289.395 105.518L288.813 107.107H289.969ZM293.947 105.281H292.615V104.274H296.482V105.281H295.144V109H293.947V105.281ZM298.205 104.274H299.402V109H298.205V104.274ZM303.767 109.101C303.29 109.101 302.857 108.998 302.469 108.79C302.086 108.583 301.782 108.295 301.556 107.925C301.335 107.551 301.225 107.122 301.225 106.64C301.225 106.158 301.335 105.73 301.556 105.355C301.782 104.981 302.086 104.691 302.469 104.483C302.857 104.276 303.29 104.172 303.767 104.172C304.241 104.172 304.669 104.276 305.052 104.483C305.44 104.691 305.744 104.981 305.965 105.355C306.186 105.73 306.296 106.158 306.296 106.64C306.296 107.122 306.186 107.551 305.965 107.925C305.744 108.295 305.44 108.583 305.052 108.79C304.669 108.998 304.241 109.101 303.767 109.101ZM303.767 107.979C304.006 107.979 304.225 107.925 304.423 107.817C304.622 107.709 304.779 107.553 304.897 107.35C305.014 107.147 305.072 106.911 305.072 106.64C305.072 106.37 305.014 106.135 304.897 105.937C304.784 105.734 304.628 105.579 304.43 105.47C304.232 105.358 304.011 105.301 303.767 105.301C303.52 105.301 303.296 105.358 303.098 105.47C302.9 105.579 302.742 105.734 302.625 105.937C302.512 106.135 302.456 106.37 302.456 106.64C302.456 106.911 302.512 107.147 302.625 107.35C302.742 107.553 302.9 107.709 303.098 107.817C303.301 107.925 303.524 107.979 303.767 107.979ZM308.121 104.274H309.304L311.042 107.086V104.274H312.239V109H311.062L309.318 106.18V109H308.121V104.274Z" fill="#E2E2E2"/>
<path d="M214.304 175.352H216.387C216.937 175.352 217.376 175.496 217.705 175.784C218.034 176.073 218.199 176.476 218.199 176.995C218.199 177.527 218.034 177.939 217.705 178.232C217.381 178.521 216.941 178.665 216.387 178.665H215.501V180.078H214.304V175.352ZM216.198 177.657C216.436 177.657 216.624 177.608 216.759 177.509C216.899 177.409 216.968 177.238 216.968 176.995C216.968 176.751 216.901 176.585 216.766 176.494C216.63 176.404 216.441 176.359 216.198 176.359H215.501V177.657H216.198ZM222.072 180.18C221.36 180.18 220.823 179.99 220.462 179.612C220.102 179.228 219.922 178.724 219.922 178.097V175.352H221.118V178.11C221.118 178.426 221.202 178.665 221.369 178.827C221.54 178.989 221.774 179.071 222.072 179.071C222.369 179.071 222.601 178.989 222.768 178.827C222.935 178.665 223.018 178.426 223.018 178.11V175.352H224.215V178.097C224.215 178.728 224.035 179.233 223.674 179.612C223.318 179.99 222.784 180.18 222.072 180.18ZM226.141 175.352H227.325L229.062 178.165V175.352H230.259V180.078H229.083L227.338 177.258V180.078H226.141V175.352ZM234.663 180.18C234.149 180.18 233.696 180.08 233.303 179.882C232.916 179.684 232.616 179.4 232.404 179.03C232.192 178.656 232.086 178.219 232.086 177.718C232.086 177.218 232.192 176.783 232.404 176.413C232.616 176.039 232.916 175.753 233.303 175.555C233.696 175.352 234.149 175.25 234.663 175.25C235.001 175.25 235.303 175.284 235.569 175.352C235.835 175.419 236.08 175.525 236.306 175.669V176.805C236.107 176.648 235.882 176.533 235.629 176.461C235.382 176.388 235.095 176.352 234.771 176.352C234.306 176.352 233.948 176.474 233.696 176.718C233.443 176.956 233.317 177.29 233.317 177.718C233.317 178.147 233.443 178.482 233.696 178.726C233.953 178.969 234.311 179.091 234.771 179.091C235.095 179.091 235.386 179.053 235.643 178.976C235.9 178.899 236.139 178.778 236.36 178.611V179.74C235.931 180.033 235.366 180.18 234.663 180.18ZM239.245 176.359H237.913V175.352H241.781V176.359H240.442V180.078H239.245V176.359ZM245.62 180.18C244.908 180.18 244.372 179.99 244.011 179.612C243.65 179.228 243.47 178.724 243.47 178.097V175.352H244.667V178.11C244.667 178.426 244.75 178.665 244.917 178.827C245.088 178.989 245.323 179.071 245.62 179.071C245.918 179.071 246.15 178.989 246.317 178.827C246.484 178.665 246.567 178.426 246.567 178.11V175.352H247.764V178.097C247.764 178.728 247.583 179.233 247.223 179.612C246.867 179.99 246.332 180.18 245.62 180.18ZM251.005 175.352H252.182L254.068 180.078H252.845L252.466 179.104H250.721L250.343 180.078H249.112L251.005 175.352ZM252.168 178.185L251.594 176.596L251.012 178.185H252.168ZM255.895 175.352H257.092V179.071H259.148V180.078H255.895V175.352ZM260.84 175.352H262.037V180.078H260.84V175.352ZM265.09 176.359H263.758V175.352H267.626V176.359H266.287V180.078H265.09V176.359ZM270.892 178.28L269.148 175.352H270.426L271.494 177.184L272.61 175.352H273.881L272.089 178.28V180.078H270.892V178.28Z" fill="#E2E2E2"/>
<path d="M124.173 211.014H125.403L126.194 213.813L126.958 211.014H127.81L128.527 213.82L129.311 211.014H130.542L129.237 215.74H128.135L127.357 212.995L126.586 215.74H125.478L124.173 211.014ZM132.131 211.014H134.254C134.809 211.014 135.242 211.154 135.553 211.433C135.868 211.712 136.026 212.114 136.026 212.637C136.026 212.988 135.949 213.288 135.796 213.536C135.643 213.784 135.427 213.969 135.147 214.09L135.985 215.74H134.755L134.004 214.259H133.328V215.74H132.131V211.014ZM134.045 213.252C134.284 213.252 134.469 213.207 134.599 213.117C134.73 213.022 134.795 212.862 134.795 212.637C134.795 212.402 134.73 212.242 134.599 212.157C134.473 212.066 134.288 212.021 134.045 212.021H133.328V213.252H134.045ZM137.855 211.014H139.052V215.74H137.855V211.014ZM142.105 212.021H140.773V211.014H144.641V212.021H143.302V215.74H142.105V212.021ZM146.364 211.014H147.561V215.74H146.364V211.014ZM149.519 211.014H150.702L152.44 213.827V211.014H153.637V215.74H152.46L150.716 212.921V215.74H149.519V211.014ZM158.04 215.842C157.526 215.842 157.073 215.742 156.681 215.544C156.293 215.346 155.994 215.062 155.782 214.692C155.57 214.318 155.464 213.881 155.464 213.38C155.464 212.88 155.57 212.445 155.782 212.075C155.994 211.701 156.293 211.415 156.681 211.217C157.073 211.014 157.526 210.912 158.04 210.912C158.383 210.912 158.685 210.946 158.946 211.014C159.212 211.077 159.458 211.181 159.683 211.325V212.461C159.485 212.303 159.26 212.19 159.007 212.123C158.759 212.051 158.473 212.015 158.148 212.015C157.869 212.015 157.619 212.071 157.398 212.184C157.182 212.292 157.01 212.45 156.884 212.657C156.758 212.864 156.695 213.105 156.695 213.38C156.695 213.809 156.819 214.147 157.067 214.395C157.319 214.643 157.659 214.767 158.088 214.767C158.326 214.767 158.527 214.726 158.689 214.645V213.888H157.966V213.049H159.825V215.402C159.343 215.695 158.748 215.842 158.04 215.842Z" fill="#E2E2E2"/>
<path d="M19.4442 175.274H22.798V176.281H20.641V177.167H22.2165V178.107H20.641V178.993H22.798V180H19.4442V175.274ZM26.1689 177.633L24.4649 175.274H25.8376L26.8586 176.687L27.8796 175.274H29.2522L27.5415 177.633L29.2522 180H27.8796L26.8586 178.587L25.8308 180H24.4582L26.1689 177.633ZM31.0765 175.274H34.4303V176.281H32.2733V177.167H33.8488V178.107H32.2733V178.993H34.4303V180H31.0765V175.274ZM38.6006 180.101C38.0868 180.101 37.6337 180.002 37.2415 179.804C36.8539 179.606 36.5541 179.322 36.3422 178.952C36.1304 178.578 36.0244 178.141 36.0244 177.64C36.0244 177.14 36.1304 176.705 36.3422 176.335C36.5541 175.961 36.8539 175.675 37.2415 175.476C37.6337 175.274 38.0868 175.172 38.6006 175.172C38.9387 175.172 39.2408 175.206 39.5067 175.274C39.7727 175.341 40.0184 175.447 40.2437 175.591V176.727C40.0454 176.57 39.82 176.455 39.5676 176.382C39.3196 176.31 39.0334 176.274 38.7088 176.274C38.2445 176.274 37.8862 176.396 37.6337 176.639C37.3813 176.878 37.2551 177.212 37.2551 177.64C37.2551 178.068 37.3813 178.404 37.6337 178.648C37.8907 178.891 38.249 179.013 38.7088 179.013C39.0334 179.013 39.3242 178.974 39.5811 178.898C39.838 178.821 40.077 178.699 40.2978 178.533V179.662C39.8696 179.955 39.3039 180.101 38.6006 180.101ZM44.2375 180.101C43.5253 180.101 42.9888 179.912 42.6282 179.533C42.2676 179.15 42.0873 178.645 42.0873 178.019V175.274H43.2841V178.032C43.2841 178.348 43.3675 178.587 43.5343 178.749C43.7056 178.911 43.94 178.993 44.2375 178.993C44.535 178.993 44.7672 178.911 44.934 178.749C45.1007 178.587 45.1841 178.348 45.1841 178.032V175.274H46.381V178.019C46.381 178.65 46.2007 179.155 45.84 179.533C45.4839 179.912 44.9497 180.101 44.2375 180.101ZM49.4024 176.281H48.0703V175.274H51.938V176.281H50.5992V180H49.4024V176.281ZM53.6609 175.274H54.8577V180H53.6609V175.274ZM59.2231 180.101C58.7453 180.101 58.3125 179.998 57.9249 179.79C57.5417 179.583 57.2374 179.295 57.012 178.925C56.7912 178.551 56.6807 178.122 56.6807 177.64C56.6807 177.158 56.7912 176.73 57.012 176.355C57.2374 175.981 57.5417 175.691 57.9249 175.483C58.3125 175.276 58.7453 175.172 59.2231 175.172C59.6964 175.172 60.1247 175.276 60.5078 175.483C60.8955 175.691 61.1998 175.981 61.4207 176.355C61.6416 176.73 61.752 177.158 61.752 177.64C61.752 178.122 61.6416 178.551 61.4207 178.925C61.1998 179.295 60.8955 179.583 60.5078 179.79C60.1247 179.998 59.6964 180.101 59.2231 180.101ZM59.2231 178.979C59.462 178.979 59.6807 178.925 59.879 178.817C60.0773 178.709 60.2351 178.553 60.3523 178.35C60.4695 178.147 60.5281 177.911 60.5281 177.64C60.5281 177.37 60.4695 177.135 60.3523 176.937C60.2396 176.734 60.0841 176.579 59.8858 176.47C59.6874 176.358 59.4665 176.301 59.2231 176.301C58.9752 176.301 58.7521 176.358 58.5537 176.47C58.3554 176.579 58.1976 176.734 58.0804 176.937C57.9677 177.135 57.9113 177.37 57.9113 177.64C57.9113 177.911 57.9677 178.147 58.0804 178.35C58.1976 178.553 58.3554 178.709 58.5537 178.817C58.7566 178.925 58.9797 178.979 59.2231 178.979ZM63.5763 175.274H64.7597L66.4974 178.086V175.274H67.6942V180H66.5177L64.7732 177.18V180H63.5763V175.274Z" fill="#E2E2E2"/>
<path d="M1.91269 109.332C1.61517 109.332 1.31991 109.303 1.0269 109.244C0.733893 109.19 0.492725 109.113 0.303397 109.014V107.939C0.546819 108.065 0.799257 108.16 1.06071 108.223C1.32667 108.286 1.57911 108.318 1.81802 108.318C2.03891 108.318 2.2057 108.284 2.31839 108.216C2.43109 108.149 2.48743 108.052 2.48743 107.925C2.48743 107.831 2.45588 107.75 2.39277 107.682C2.33417 107.61 2.24627 107.545 2.12906 107.486C2.01186 107.427 1.82929 107.346 1.58136 107.243C1.1441 107.058 0.826304 106.853 0.62796 106.627C0.429616 106.402 0.330444 106.125 0.330444 105.796C0.330444 105.525 0.404823 105.284 0.553581 105.072C0.706846 104.86 0.918714 104.696 1.18918 104.578C1.45965 104.461 1.77069 104.403 2.1223 104.403C2.4108 104.403 2.66775 104.425 2.89314 104.47C3.11853 104.515 3.3349 104.587 3.54226 104.687V105.735C3.14558 105.527 2.74663 105.424 2.34544 105.424C2.12906 105.424 1.95551 105.46 1.82479 105.532C1.69857 105.599 1.63546 105.699 1.63546 105.829C1.63546 105.96 1.70082 106.066 1.83155 106.147C1.96227 106.228 2.20344 106.339 2.55505 106.478C2.87511 106.609 3.12304 106.738 3.29884 106.864C3.47915 106.99 3.60988 107.137 3.69102 107.303C3.77216 107.47 3.81273 107.682 3.81273 107.939C3.81273 108.376 3.65271 108.719 3.33265 108.967C3.0171 109.21 2.54378 109.332 1.91269 109.332ZM6.56439 105.512H5.23233V104.504H9.10003V105.512H7.76121V109.23H6.56439V105.512ZM10.8229 104.504H12.9461C13.5005 104.504 13.9333 104.644 14.2443 104.923C14.5599 105.203 14.7177 105.604 14.7177 106.127C14.7177 106.478 14.641 106.778 14.4878 107.026C14.3345 107.274 14.1181 107.459 13.8386 107.581L14.6771 109.23H13.4464L12.6959 107.75H12.0197V109.23H10.8229V104.504ZM12.7365 106.742C12.9754 106.742 13.1602 106.697 13.2909 106.607C13.4217 106.512 13.487 106.352 13.487 106.127C13.487 105.892 13.4217 105.732 13.2909 105.647C13.1647 105.557 12.9799 105.512 12.7365 105.512H12.0197V106.742H12.7365ZM18.0009 104.504H19.1774L21.064 109.23H19.8401L19.4614 108.257H17.7169L17.3382 109.23H16.1076L18.0009 104.504ZM19.1639 107.337L18.5892 105.748L18.0077 107.337H19.1639ZM23.1412 105.512H21.8091V104.504H25.6768V105.512H24.338V109.23H23.1412V105.512ZM27.3997 104.504H30.7535V105.512H28.5965V106.397H30.172V107.337H28.5965V108.223H30.7535V109.23H27.3997V104.504ZM34.9239 109.332C34.41 109.332 33.9569 109.233 33.5648 109.034C33.1771 108.836 32.8773 108.552 32.6654 108.182C32.4536 107.808 32.3476 107.371 32.3476 106.871C32.3476 106.37 32.4536 105.935 32.6654 105.566C32.8773 105.191 33.1771 104.905 33.5648 104.707C33.9569 104.504 34.41 104.403 34.9239 104.403C35.2665 104.403 35.5685 104.436 35.8299 104.504C36.0959 104.567 36.3416 104.671 36.567 104.815V105.951C36.3686 105.793 36.1432 105.681 35.8908 105.613C35.6429 105.541 35.3566 105.505 35.032 105.505C34.7526 105.505 34.5024 105.561 34.2815 105.674C34.0651 105.782 33.8938 105.94 33.7676 106.147C33.6414 106.354 33.5783 106.596 33.5783 106.871C33.5783 107.299 33.7022 107.637 33.9502 107.885C34.2026 108.133 34.5429 108.257 34.9712 108.257C35.2101 108.257 35.4107 108.216 35.573 108.135V107.378H34.8495V106.539H36.709V108.892C36.2266 109.185 35.6316 109.332 34.9239 109.332ZM39.8423 107.432L38.0978 104.504H39.3757L40.4441 106.336L41.5598 104.504H42.831L41.0391 107.432V109.23H39.8423V107.432Z" fill="#E2E2E2"/>
<path d="M27.0623 35.2736H28.2389L30.1254 40H28.9015L28.5229 39.0263H26.7783L26.3997 40H25.169L27.0623 35.2736ZM28.2253 38.1067L27.6506 36.5177L27.0691 38.1067H28.2253ZM32.2026 36.2811H30.8706V35.2736H34.7383V36.2811H33.3994V40H32.2026V36.2811ZM37.7942 36.2811H36.4622V35.2736H40.3299V36.2811H38.9911V40H37.7942V36.2811ZM42.0528 35.2736H43.2496V40H42.0528V35.2736ZM46.3032 36.2811H44.9711V35.2736H48.8388V36.2811H47.5V40H46.3032V36.2811ZM52.6781 40.1014C51.9659 40.1014 51.4295 39.9121 51.0688 39.5334C50.7082 39.1503 50.5279 38.6454 50.5279 38.0188V35.2736H51.7247V38.0323C51.7247 38.3479 51.8081 38.5868 51.9749 38.7491C52.1462 38.9114 52.3806 38.9925 52.6781 38.9925C52.9756 38.9925 53.2078 38.9114 53.3746 38.7491C53.5414 38.5868 53.6248 38.3479 53.6248 38.0323V35.2736H54.8216V38.0188C54.8216 38.6499 54.6413 39.1548 54.2807 39.5334C53.9245 39.9121 53.3904 40.1014 52.6781 40.1014ZM56.7476 35.2736H58.4448C58.9632 35.2736 59.4163 35.3682 59.8039 35.5575C60.1916 35.7469 60.4891 36.0196 60.6965 36.3757C60.9083 36.7273 61.0143 37.1398 61.0143 37.6131C61.0143 38.3975 60.7844 38.9925 60.3246 39.3982C59.8648 39.7994 59.2269 40 58.411 40H56.7476V35.2736ZM58.5124 38.9925C58.9226 38.9925 59.2359 38.8685 59.4523 38.6206C59.6732 38.3727 59.7836 38.0368 59.7836 37.6131C59.7836 37.2254 59.6732 36.9076 59.4523 36.6597C59.2359 36.4073 58.9362 36.2811 58.553 36.2811H57.9445V38.9925H58.5124ZM62.8411 35.2736H66.1949V36.2811H64.0379V37.1668H65.6134V38.1067H64.0379V38.9925H66.1949V40H62.8411V35.2736Z" fill="#E2E2E2"/>
<path d="M141.237 82.6927L140.469 83.2499V82.3086L141.399 81.627H142.194V85.4082H141.237V82.6927Z" fill="#253966"/>
<path d="M139.593 67.7427L140.193 67.1964L140.453 66.9638C140.665 66.7762 140.828 66.6266 140.939 66.5148C141.055 66.403 141.149 66.2894 141.221 66.174C141.296 66.0586 141.334 65.945 141.334 65.8332C141.334 65.4978 141.145 65.3301 140.766 65.3301C140.582 65.3301 140.4 65.3626 140.22 65.4275C140.043 65.4924 139.879 65.5826 139.728 65.698V64.7838C139.89 64.672 140.079 64.5854 140.296 64.5241C140.512 64.4592 140.743 64.4268 140.988 64.4268C141.269 64.4268 141.513 64.4791 141.718 64.5836C141.924 64.6882 142.081 64.8325 142.189 65.0164C142.297 65.2003 142.351 65.4077 142.351 65.6385C142.351 65.9161 142.286 66.1596 142.157 66.3687C142.03 66.5743 141.825 66.8069 141.54 67.0665L141.058 67.5047H142.47V68.2891H139.593V67.7427Z" fill="#253966"/>
<path d="M140.858 47.4503C140.62 47.4503 140.391 47.4304 140.171 47.3908C139.954 47.3511 139.769 47.2916 139.614 47.2123V46.455C139.978 46.6208 140.346 46.7038 140.717 46.7038C141.218 46.7038 141.469 46.5541 141.469 46.2548C141.469 46.1033 141.408 45.9952 141.285 45.9302C141.163 45.8617 140.971 45.8275 140.712 45.8275H140.187V45.0972H140.69C140.903 45.0972 141.067 45.0611 141.182 44.989C141.301 44.9169 141.361 44.8105 141.361 44.6699C141.361 44.5364 141.309 44.4336 141.204 44.3615C141.099 44.2894 140.952 44.2533 140.76 44.2533C140.367 44.2533 140.01 44.3543 139.689 44.5563V43.7827C139.852 43.6962 140.037 43.6295 140.247 43.5826C140.456 43.5321 140.672 43.5068 140.896 43.5068C141.39 43.5068 141.754 43.606 141.988 43.8044C142.223 43.9991 142.34 44.275 142.34 44.632C142.34 44.7943 142.3 44.9475 142.221 45.0918C142.145 45.236 142.032 45.3587 141.88 45.4596C142.259 45.6255 142.448 45.9068 142.448 46.3035C142.448 46.6677 142.324 46.9508 142.075 47.1528C141.826 47.3511 141.42 47.4503 140.858 47.4503Z" fill="#253966"/>
<path d="M141.131 25.6683H139.395V25.0733L141.185 22.6661H142.132V24.911H142.667V25.6683H142.132V26.4473H141.131V25.6683ZM141.277 24.911V23.8291L140.482 24.911H141.277Z" fill="#253966"/>
</g>
</svg>
