<svg width="473" height="348" viewBox="0 0 473 348" fill="none" xmlns="http://www.w3.org/2000/svg">
<path d="M374.345 167.45C375.455 170.114 375.455 173.111 374.345 175.775L332.753 275.559C331.649 278.208 329.538 280.309 326.885 281.401L226.382 322.77C223.744 323.856 220.784 323.856 218.146 322.77L117.644 281.401C114.99 280.309 112.88 278.208 111.776 275.559L70.1832 175.775C69.0729 173.111 69.0729 170.114 70.1832 167.45L111.776 67.6655C112.88 65.0171 114.99 62.9157 117.644 61.8235L218.146 20.4548C220.784 19.369 223.744 19.369 226.382 20.4548L326.885 61.8235C329.538 62.9157 331.649 65.0171 332.753 67.6655L374.345 167.45Z" fill="#DA5A5A"/>
<path d="M374.033 167.58C375.109 170.161 375.109 173.064 374.033 175.645L332.44 275.429C331.371 277.995 329.326 280.03 326.756 281.088L226.253 322.457C223.698 323.509 220.83 323.509 218.275 322.457L117.772 281.088C115.202 280.03 113.157 277.995 112.088 275.429L70.4953 175.645C69.4196 173.064 69.4196 170.161 70.4953 167.58L112.088 67.7956C113.157 65.2299 115.202 63.1942 117.772 62.1362L218.275 20.7674C220.83 19.7155 223.698 19.7155 226.253 20.7674L326.756 62.1362C329.326 63.1942 331.371 65.2299 332.44 67.7956L374.033 167.58Z" stroke="#454F65" stroke-opacity="0.3" stroke-width="0.676173"/>
<path d="M343.031 167.969C344.002 170.3 344.002 172.923 343.031 175.254L310.241 253.918C309.275 256.236 307.428 258.074 305.107 259.03L225.868 291.646C223.56 292.596 220.97 292.596 218.662 291.646L139.423 259.03C137.102 258.074 135.255 256.236 134.289 253.918L101.5 175.254C100.528 172.923 100.528 170.3 101.5 167.969L134.289 89.3047C135.255 86.9874 137.102 85.1486 139.423 84.193L218.662 51.5769C220.97 50.6268 223.56 50.6268 225.868 51.5769L305.107 84.193C307.429 85.1486 309.275 86.9874 310.241 89.3047L343.031 167.969Z" fill="#D39213"/>
<path d="M342.719 168.099C343.656 170.347 343.656 172.876 342.719 175.124L309.929 253.788C308.998 256.023 307.217 257.796 304.978 258.717L225.74 291.333C223.514 292.25 221.016 292.25 218.791 291.333L139.552 258.717C137.313 257.796 135.532 256.023 134.601 253.788L101.812 175.124C100.875 172.876 100.875 170.347 101.812 168.099L134.601 89.4348C135.532 87.2002 137.313 85.4271 139.552 84.5056L218.791 51.8895C221.016 50.9734 223.514 50.9734 225.74 51.8895L304.978 84.5056C307.217 85.4271 308.998 87.2002 309.929 89.4348L342.719 168.099Z" stroke="#454F65" stroke-opacity="0.3" stroke-width="0.676173"/>
<path d="M307.099 168.49C307.932 170.488 307.932 172.736 307.099 174.734L284.465 229.036C283.637 231.023 282.054 232.599 280.064 233.418L225.352 255.938C223.374 256.753 221.153 256.753 219.175 255.938L164.463 233.418C162.473 232.599 160.89 231.023 160.062 229.036L137.428 174.734C136.595 172.736 136.595 170.488 137.428 168.49L160.062 114.188C160.89 112.201 162.473 110.625 164.463 109.806L219.175 87.2859C221.153 86.4716 223.374 86.4716 225.352 87.2859L280.064 109.806C282.054 110.625 283.637 112.201 284.465 114.188L307.099 168.49Z" fill="#182030"/>
<path d="M306.787 168.62C307.585 170.535 307.585 172.689 306.787 174.604L284.152 228.906C283.359 230.81 281.842 232.32 279.935 233.105L225.223 255.626C223.327 256.406 221.2 256.406 219.304 255.626L164.592 233.105C162.685 232.32 161.168 230.81 160.374 228.906L137.74 174.604C136.942 172.689 136.942 170.535 137.74 168.62L160.374 114.318C161.168 112.414 162.685 110.904 164.592 110.119L219.304 87.5986C221.2 86.8181 223.327 86.8181 225.223 87.5986L279.935 110.119C281.842 110.904 283.359 112.414 284.152 114.318L306.787 168.62Z" stroke="white" stroke-opacity="0.05" stroke-width="0.676173"/>
<path d="M306.787 168.62C307.585 170.535 307.585 172.689 306.787 174.604L284.152 228.906C283.359 230.81 281.842 232.32 279.935 233.105L225.223 255.626C223.327 256.406 221.2 256.406 219.304 255.626L164.592 233.105C162.685 232.32 161.168 230.81 160.374 228.906L137.74 174.604C136.942 172.689 136.942 170.535 137.74 168.62L160.374 114.318C161.168 112.414 162.685 110.904 164.592 110.119L219.304 87.5986C221.2 86.8181 223.327 86.8181 225.223 87.5986L279.935 110.119C281.842 110.904 283.359 112.414 284.152 114.318L306.787 168.62Z" stroke="#454F65" stroke-opacity="0.3" stroke-width="0.676173"/>
<path d="M275.568 168.489C276.401 170.487 276.401 172.735 275.568 174.733L262.169 206.879C261.341 208.865 259.758 210.441 257.768 211.26L225.353 224.603C223.375 225.417 221.154 225.417 219.176 224.603L186.761 211.26C184.771 210.441 183.188 208.865 182.36 206.879L168.961 174.733C168.128 172.735 168.128 170.487 168.961 168.489L182.36 136.344C183.188 134.358 184.771 132.782 186.761 131.963L219.176 118.62C221.154 117.806 223.375 117.806 225.353 118.62L257.768 131.963C259.758 132.782 261.341 134.358 262.169 136.344L275.568 168.489Z" fill="#E2E2E2"/>
<path d="M275.256 168.62C276.054 170.534 276.054 172.688 275.256 174.603L261.857 206.748C261.063 208.652 259.546 210.162 257.639 210.947L225.224 224.29C223.328 225.07 221.201 225.07 219.305 224.29L186.89 210.947C184.983 210.162 183.466 208.652 182.672 206.748L169.273 174.603C168.475 172.688 168.475 170.534 169.273 168.62L182.672 136.474C183.466 134.571 184.983 133.06 186.89 132.275L219.305 118.933C221.201 118.152 223.328 118.152 225.224 118.933L257.639 132.275C259.546 133.06 261.063 134.571 261.857 136.474L275.256 168.62Z" stroke="white" stroke-opacity="0.05" stroke-width="0.676173"/>
<path d="M275.256 168.62C276.054 170.534 276.054 172.688 275.256 174.603L261.857 206.748C261.063 208.652 259.546 210.162 257.639 210.947L225.224 224.29C223.328 225.07 221.201 225.07 219.305 224.29L186.89 210.947C184.983 210.162 183.466 208.652 182.672 206.748L169.273 174.603C168.475 172.688 168.475 170.534 169.273 168.62L182.672 136.474C183.466 134.571 184.983 133.06 186.89 132.275L219.305 118.933C221.201 118.152 223.328 118.152 225.224 118.933L257.639 132.275C259.546 133.06 261.063 134.571 261.857 136.474L275.256 168.62Z" stroke="#454F65" stroke-opacity="0.3" stroke-width="0.676173"/>
<path d="M253.027 171.612L244.017 193.228L222.264 202.182L200.511 193.228L191.501 171.612L200.511 149.995L222.264 141.041L244.017 149.995L253.027 171.612Z" fill="#575758"/>
<path d="M243.759 150.254L252.661 171.612L243.759 192.969L222.264 201.816L200.769 192.969L191.867 171.612L200.769 150.254L222.264 141.407L243.759 150.254Z" stroke="#454F65" stroke-opacity="0.3" stroke-width="0.676173"/>
<path d="M196.066 3.69804H194.734V2.69055H198.601V3.69804H197.263V7.41699H196.066V3.69804ZM200.324 2.69055H203.678V3.69804H201.521V4.58383H203.097V5.52371H201.521V6.40949H203.678V7.41699H200.324V2.69055ZM207.848 7.51842C207.334 7.51842 206.881 7.41925 206.489 7.2209C206.102 7.02256 205.802 6.73857 205.59 6.36892C205.378 5.99478 205.272 5.55752 205.272 5.05715C205.272 4.55678 205.378 4.12178 205.59 3.75214C205.802 3.37799 206.102 3.09174 206.489 2.8934C206.881 2.69055 207.334 2.58912 207.848 2.58912C208.186 2.58912 208.488 2.62293 208.754 2.69055C209.02 2.75816 209.266 2.8641 209.491 3.00835V4.14432C209.293 3.98654 209.068 3.87159 208.815 3.79947C208.567 3.72734 208.281 3.69128 207.957 3.69128C207.492 3.69128 207.134 3.81299 206.881 4.05641C206.629 4.29533 206.503 4.62891 206.503 5.05715C206.503 5.48539 206.629 5.82122 206.881 6.06465C207.138 6.30807 207.497 6.42978 207.957 6.42978C208.281 6.42978 208.572 6.39146 208.829 6.31483C209.086 6.2382 209.325 6.11649 209.546 5.9497V7.07891C209.117 7.37191 208.552 7.51842 207.848 7.51842ZM211.369 2.69055H212.566V4.51621H214.418V2.69055H215.615V7.41699H214.418V5.51019H212.566V7.41699H211.369V2.69055ZM217.575 2.69055H218.758L220.496 5.50342V2.69055H221.692V7.41699H220.516L218.771 4.59735V7.41699H217.575V2.69055ZM223.655 2.69055H224.852V7.41699H223.655V2.69055ZM229.251 7.51842C228.737 7.51842 228.284 7.41925 227.892 7.2209C227.504 7.02256 227.204 6.73857 226.992 6.36892C226.781 5.99478 226.675 5.55752 226.675 5.05715C226.675 4.55678 226.781 4.12178 226.992 3.75214C227.204 3.37799 227.504 3.09174 227.892 2.8934C228.284 2.69055 228.737 2.58912 229.251 2.58912C229.589 2.58912 229.891 2.62293 230.157 2.69055C230.423 2.75816 230.669 2.8641 230.894 3.00835V4.14432C230.696 3.98654 230.47 3.87159 230.218 3.79947C229.97 3.72734 229.684 3.69128 229.359 3.69128C228.895 3.69128 228.536 3.81299 228.284 4.05641C228.031 4.29533 227.905 4.62891 227.905 5.05715C227.905 5.48539 228.031 5.82122 228.284 6.06465C228.541 6.30807 228.899 6.42978 229.359 6.42978C229.684 6.42978 229.974 6.39146 230.231 6.31483C230.488 6.2382 230.727 6.11649 230.948 5.9497V7.07891C230.52 7.37191 229.954 7.51842 229.251 7.51842ZM234.358 2.69055H235.534L237.421 7.41699H236.197L235.818 6.4433H234.074L233.695 7.41699H232.464L234.358 2.69055ZM235.521 5.52371L234.946 3.9347L234.364 5.52371H235.521ZM239.248 2.69055H240.445V6.40949H242.5V7.41699H239.248V2.69055Z" fill="#E2E2E2"/>
<path d="M348.831 64.0741C348.317 64.0741 347.864 63.9749 347.472 63.7766C347.084 63.5782 346.785 63.2942 346.573 62.9246C346.361 62.5504 346.255 62.1132 346.255 61.6128C346.255 61.1124 346.361 60.6774 346.573 60.3078C346.785 59.9337 347.084 59.6474 347.472 59.4491C347.864 59.2462 348.317 59.1448 348.831 59.1448C349.169 59.1448 349.471 59.1786 349.737 59.2462C350.003 59.3138 350.249 59.4198 350.474 59.564V60.7C350.276 60.5422 350.051 60.4273 349.798 60.3551C349.55 60.283 349.264 60.2469 348.939 60.2469C348.475 60.2469 348.117 60.3687 347.864 60.6121C347.612 60.851 347.486 61.1846 347.486 61.6128C347.486 62.0411 347.612 62.3769 347.864 62.6203C348.121 62.8637 348.48 62.9854 348.939 62.9854C349.264 62.9854 349.555 62.9471 349.812 62.8705C350.069 62.7939 350.308 62.6722 350.528 62.5054V63.6346C350.1 63.9276 349.534 64.0741 348.831 64.0741ZM352.352 59.2462H354.475C355.029 59.2462 355.462 59.386 355.773 59.6654C356.089 59.9449 356.246 60.3461 356.246 60.869C356.246 61.2206 356.17 61.5204 356.016 61.7683C355.863 62.0163 355.647 62.2011 355.367 62.3228L356.206 63.9727H354.975L354.225 62.4918H353.548V63.9727H352.352V59.2462ZM354.265 61.4843C354.504 61.4843 354.689 61.4393 354.82 61.3491C354.95 61.2544 355.016 61.0944 355.016 60.869C355.016 60.6346 354.95 60.4746 354.82 60.3889C354.693 60.2988 354.509 60.2537 354.265 60.2537H353.548V61.4843H354.265ZM358.075 59.2462H361.429V60.2537H359.272V61.1395H360.848V62.0794H359.272V62.9652H361.429V63.9727H358.075V59.2462ZM365.016 59.2462H366.192L368.079 63.9727H366.855L366.476 62.999H364.732L364.353 63.9727H363.122L365.016 59.2462ZM366.179 62.0794L365.604 60.4904L365.022 62.0794H366.179ZM370.156 60.2537H368.824V59.2462H372.692V60.2537H371.353V63.9727H370.156V60.2537ZM374.414 59.2462H375.611V63.9727H374.414V59.2462ZM377.434 59.2462H378.712L379.916 62.3904L381.119 59.2462H382.391L380.504 63.9727H379.327L377.434 59.2462ZM384.218 59.2462H385.414V63.9727H384.218V59.2462ZM388.468 60.2537H387.136V59.2462H391.004V60.2537H389.665V63.9727H388.468V60.2537ZM394.27 62.174L392.525 59.2462H393.803L394.872 61.0786L395.987 59.2462H397.258L395.467 62.174V63.9727H394.27V62.174Z" fill="#E2E2E2"/>
<path d="M391.13 174.128C390.616 174.128 390.163 174.029 389.771 173.83C389.383 173.632 389.083 173.348 388.872 172.978C388.66 172.604 388.554 172.167 388.554 171.667C388.554 171.166 388.66 170.731 388.872 170.362C389.083 169.987 389.383 169.701 389.771 169.503C390.163 169.3 390.616 169.198 391.13 169.198C391.468 169.198 391.77 169.232 392.036 169.3C392.302 169.368 392.548 169.473 392.773 169.618V170.754C392.575 170.596 392.349 170.481 392.097 170.409C391.849 170.337 391.563 170.301 391.238 170.301C390.774 170.301 390.416 170.422 390.163 170.666C389.911 170.905 389.784 171.238 389.784 171.667C389.784 172.095 389.911 172.431 390.163 172.674C390.42 172.917 390.778 173.039 391.238 173.039C391.563 173.039 391.854 173.001 392.11 172.924C392.367 172.848 392.606 172.726 392.827 172.559V173.688C392.399 173.981 391.833 174.128 391.13 174.128ZM396.886 174.128C396.408 174.128 395.975 174.024 395.588 173.817C395.205 173.609 394.9 173.321 394.675 172.951C394.454 172.577 394.344 172.149 394.344 171.667C394.344 171.184 394.454 170.756 394.675 170.382C394.9 170.008 395.205 169.717 395.588 169.51C395.975 169.302 396.408 169.198 396.886 169.198C397.359 169.198 397.788 169.302 398.171 169.51C398.558 169.717 398.863 170.008 399.084 170.382C399.304 170.756 399.415 171.184 399.415 171.667C399.415 172.149 399.304 172.577 399.084 172.951C398.863 173.321 398.558 173.609 398.171 173.817C397.788 174.024 397.359 174.128 396.886 174.128ZM396.886 173.005C397.125 173.005 397.343 172.951 397.542 172.843C397.74 172.735 397.898 172.579 398.015 172.377C398.132 172.174 398.191 171.937 398.191 171.667C398.191 171.396 398.132 171.162 398.015 170.963C397.902 170.76 397.747 170.605 397.549 170.497C397.35 170.384 397.129 170.328 396.886 170.328C396.638 170.328 396.415 170.384 396.217 170.497C396.018 170.605 395.86 170.76 395.743 170.963C395.631 171.162 395.574 171.396 395.574 171.667C395.574 171.937 395.631 172.174 395.743 172.377C395.86 172.579 396.018 172.735 396.217 172.843C396.419 172.951 396.643 173.005 396.886 173.005ZM401.239 169.3H402.389L403.755 172.228L405.127 169.3H406.27V174.026H405.154V171.653L404.025 174.026H403.484L402.362 171.653V174.026H401.239V169.3ZM408.231 169.3H409.38L410.746 172.228L412.119 169.3H413.261V174.026H412.146V171.653L411.017 174.026H410.476L409.353 171.653V174.026H408.231V169.3ZM417.339 174.128C416.626 174.128 416.09 173.938 415.729 173.56C415.369 173.177 415.188 172.672 415.188 172.045V169.3H416.385V172.059C416.385 172.374 416.469 172.613 416.635 172.775C416.807 172.938 417.041 173.019 417.339 173.019C417.636 173.019 417.868 172.938 418.035 172.775C418.202 172.613 418.285 172.374 418.285 172.059V169.3H419.482V172.045C419.482 172.676 419.302 173.181 418.941 173.56C418.585 173.938 418.051 174.128 417.339 174.128ZM421.408 169.3H422.591L424.329 172.113V169.3H425.526V174.026H424.349L422.605 171.207V174.026H421.408V169.3ZM427.488 169.3H428.685V174.026H427.488V169.3ZM433.084 174.128C432.571 174.128 432.117 174.029 431.725 173.83C431.338 173.632 431.038 173.348 430.826 172.978C430.614 172.604 430.508 172.167 430.508 171.667C430.508 171.166 430.614 170.731 430.826 170.362C431.038 169.987 431.338 169.701 431.725 169.503C432.117 169.3 432.571 169.198 433.084 169.198C433.423 169.198 433.725 169.232 433.99 169.3C434.256 169.368 434.502 169.473 434.728 169.618V170.754C434.529 170.596 434.304 170.481 434.051 170.409C433.803 170.337 433.517 170.301 433.193 170.301C432.728 170.301 432.37 170.422 432.117 170.666C431.865 170.905 431.739 171.238 431.739 171.667C431.739 172.095 431.865 172.431 432.117 172.674C432.374 172.917 432.733 173.039 433.193 173.039C433.517 173.039 433.808 173.001 434.065 172.924C434.322 172.848 434.561 172.726 434.782 172.559V173.688C434.353 173.981 433.788 174.128 433.084 174.128ZM438.191 169.3H439.368L441.254 174.026H440.03L439.652 173.053H437.907L437.529 174.026H436.298L438.191 169.3ZM439.354 172.133L438.779 170.544L438.198 172.133H439.354ZM443.332 170.307H441.999V169.3H445.867V170.307H444.528V174.026H443.332V170.307ZM447.59 169.3H448.787V174.026H447.59V169.3ZM453.152 174.128C452.674 174.128 452.242 174.024 451.854 173.817C451.471 173.609 451.167 173.321 450.941 172.951C450.72 172.577 450.61 172.149 450.61 171.667C450.61 171.184 450.72 170.756 450.941 170.382C451.167 170.008 451.471 169.717 451.854 169.51C452.242 169.302 452.674 169.198 453.152 169.198C453.626 169.198 454.054 169.302 454.437 169.51C454.825 169.717 455.129 170.008 455.35 170.382C455.571 170.756 455.681 171.184 455.681 171.667C455.681 172.149 455.571 172.577 455.35 172.951C455.129 173.321 454.825 173.609 454.437 173.817C454.054 174.024 453.626 174.128 453.152 174.128ZM453.152 173.005C453.391 173.005 453.61 172.951 453.808 172.843C454.006 172.735 454.164 172.579 454.281 172.377C454.399 172.174 454.457 171.937 454.457 171.667C454.457 171.396 454.399 171.162 454.281 170.963C454.169 170.76 454.013 170.605 453.815 170.497C453.617 170.384 453.396 170.328 453.152 170.328C452.904 170.328 452.681 170.384 452.483 170.497C452.284 170.605 452.127 170.76 452.009 170.963C451.897 171.162 451.84 171.396 451.84 171.667C451.84 171.937 451.897 172.174 452.009 172.377C452.127 172.579 452.284 172.735 452.483 172.843C452.686 172.951 452.909 173.005 453.152 173.005ZM457.505 169.3H458.689L460.427 172.113V169.3H461.623V174.026H460.447L458.702 171.207V174.026H457.505V169.3Z" fill="#E2E2E2"/>
<path d="M344.853 280.883H346.936C347.486 280.883 347.925 281.027 348.254 281.316C348.583 281.604 348.748 282.008 348.748 282.526C348.748 283.058 348.583 283.47 348.254 283.763C347.93 284.052 347.49 284.196 346.936 284.196H346.05V285.609H344.853V280.883ZM346.746 283.189C346.985 283.189 347.172 283.139 347.308 283.04C347.447 282.941 347.517 282.769 347.517 282.526C347.517 282.283 347.45 282.116 347.314 282.026C347.179 281.936 346.99 281.89 346.746 281.89H346.05V283.189H346.746ZM352.621 285.711C351.908 285.711 351.372 285.521 351.011 285.143C350.651 284.76 350.47 284.255 350.47 283.628V280.883H351.667V283.642C351.667 283.957 351.751 284.196 351.917 284.358C352.089 284.521 352.323 284.602 352.621 284.602C352.918 284.602 353.15 284.521 353.317 284.358C353.484 284.196 353.567 283.957 353.567 283.642V280.883H354.764V283.628C354.764 284.259 354.584 284.764 354.223 285.143C353.867 285.521 353.333 285.711 352.621 285.711ZM356.69 280.883H357.873L359.611 283.696V280.883H360.808V285.609H359.631L357.887 282.79V285.609H356.69V280.883ZM365.211 285.711C364.697 285.711 364.244 285.612 363.852 285.413C363.465 285.215 363.165 284.931 362.953 284.561C362.741 284.187 362.635 283.75 362.635 283.25C362.635 282.749 362.741 282.314 362.953 281.945C363.165 281.57 363.465 281.284 363.852 281.086C364.244 280.883 364.697 280.782 365.211 280.782C365.549 280.782 365.851 280.815 366.117 280.883C366.383 280.951 366.629 281.056 366.854 281.201V282.337C366.656 282.179 366.431 282.064 366.178 281.992C365.93 281.92 365.644 281.884 365.32 281.884C364.855 281.884 364.497 282.005 364.244 282.249C363.992 282.488 363.866 282.821 363.866 283.25C363.866 283.678 363.992 284.014 364.244 284.257C364.501 284.5 364.86 284.622 365.32 284.622C365.644 284.622 365.935 284.584 366.192 284.507C366.449 284.431 366.688 284.309 366.909 284.142V285.271C366.48 285.564 365.915 285.711 365.211 285.711ZM369.794 281.89H368.462V280.883H372.33V281.89H370.991V285.609H369.794V281.89ZM376.169 285.711C375.457 285.711 374.92 285.521 374.56 285.143C374.199 284.76 374.019 284.255 374.019 283.628V280.883H375.216V283.642C375.216 283.957 375.299 284.196 375.466 284.358C375.637 284.521 375.872 284.602 376.169 284.602C376.467 284.602 376.699 284.521 376.866 284.358C377.032 284.196 377.116 283.957 377.116 283.642V280.883H378.313V283.628C378.313 284.259 378.132 284.764 377.772 285.143C377.416 285.521 376.881 285.711 376.169 285.711ZM381.554 280.883H382.731L384.617 285.609H383.393L383.015 284.636H381.27L380.892 285.609H379.661L381.554 280.883ZM382.717 283.716L382.142 282.127L381.561 283.716H382.717ZM386.444 280.883H387.641V284.602H389.697V285.609H386.444V280.883ZM391.389 280.883H392.586V285.609H391.389V280.883ZM395.639 281.89H394.307V280.883H398.175V281.89H396.836V285.609H395.639V281.89ZM401.441 283.811L399.697 280.883H400.974L402.043 282.715L403.159 280.883H404.43L402.638 283.811V285.609H401.441V283.811Z" fill="#E2E2E2"/>
<path d="M204.136 338.202H205.367L206.158 341.002L206.922 338.202H207.774L208.491 341.008L209.275 338.202H210.506L209.201 342.929H208.098L207.321 340.183L206.55 342.929H205.441L204.136 338.202ZM212.095 338.202H214.218C214.772 338.202 215.205 338.342 215.516 338.621C215.832 338.901 215.99 339.302 215.99 339.825C215.99 340.177 215.913 340.476 215.76 340.724C215.606 340.972 215.39 341.157 215.11 341.279L215.949 342.929H214.718L213.968 341.448H213.292V342.929H212.095V338.202ZM214.008 340.44C214.247 340.44 214.432 340.395 214.563 340.305C214.694 340.21 214.759 340.05 214.759 339.825C214.759 339.591 214.694 339.431 214.563 339.345C214.437 339.255 214.252 339.21 214.008 339.21H213.292V340.44H214.008ZM217.818 338.202H219.015V342.929H217.818V338.202ZM222.069 339.21H220.737V338.202H224.605V339.21H223.266V342.929H222.069V339.21ZM226.327 338.202H227.524V342.929H226.327V338.202ZM229.482 338.202H230.666L232.404 341.015V338.202H233.6V342.929H232.424L230.679 340.109V342.929H229.482V338.202ZM238.004 343.03C237.49 343.03 237.037 342.931 236.645 342.733C236.257 342.534 235.957 342.25 235.745 341.881C235.533 341.506 235.427 341.069 235.427 340.569C235.427 340.069 235.533 339.633 235.745 339.264C235.957 338.89 236.257 338.603 236.645 338.405C237.037 338.202 237.49 338.101 238.004 338.101C238.346 338.101 238.648 338.135 238.91 338.202C239.176 338.265 239.421 338.369 239.647 338.513V339.649C239.448 339.491 239.223 339.379 238.971 339.311C238.723 339.239 238.436 339.203 238.112 339.203C237.832 339.203 237.582 339.259 237.361 339.372C237.145 339.48 236.974 339.638 236.847 339.845C236.721 340.053 236.658 340.294 236.658 340.569C236.658 340.997 236.782 341.335 237.03 341.583C237.282 341.831 237.623 341.955 238.051 341.955C238.29 341.955 238.491 341.914 238.653 341.833V341.076H237.929V340.238H239.789V342.591C239.306 342.884 238.711 343.03 238.004 343.03Z" fill="#E2E2E2"/>
<path d="M54.2862 286.232H57.6401V287.239H55.4831V288.125H57.0585V289.065H55.4831V289.951H57.6401V290.958H54.2862V286.232ZM61.0109 288.591L59.307 286.232H60.6796L61.7006 287.645L62.7216 286.232H64.0943L62.3836 288.591L64.0943 290.958H62.7216L61.7006 289.545L60.6728 290.958H59.3002L61.0109 288.591ZM65.9185 286.232H69.2723V287.239H67.1153V288.125H68.6908V289.065H67.1153V289.951H69.2723V290.958H65.9185V286.232ZM73.4427 291.059C72.9288 291.059 72.4758 290.96 72.0836 290.762C71.6959 290.564 71.3961 290.28 71.1843 289.91C70.9724 289.536 70.8665 289.099 70.8665 288.598C70.8665 288.098 70.9724 287.663 71.1843 287.293C71.3961 286.919 71.6959 286.633 72.0836 286.434C72.4758 286.232 72.9288 286.13 73.4427 286.13C73.7808 286.13 74.0828 286.164 74.3488 286.232C74.6147 286.299 74.8604 286.405 75.0858 286.549V287.685C74.8874 287.528 74.662 287.413 74.4096 287.34C74.1617 287.268 73.8754 287.232 73.5509 287.232C73.0866 287.232 72.7282 287.354 72.4758 287.597C72.2233 287.836 72.0971 288.17 72.0971 288.598C72.0971 289.026 72.2233 289.362 72.4758 289.606C72.7327 289.849 73.0911 289.971 73.5509 289.971C73.8754 289.971 74.1662 289.932 74.4231 289.856C74.6801 289.779 74.919 289.658 75.1399 289.491V290.62C74.7116 290.913 74.1459 291.059 73.4427 291.059ZM79.0795 291.059C78.3673 291.059 77.8309 290.87 77.4702 290.491C77.1096 290.108 76.9293 289.603 76.9293 288.977V286.232H78.1261V288.99C78.1261 289.306 78.2095 289.545 78.3763 289.707C78.5476 289.869 78.782 289.951 79.0795 289.951C79.377 289.951 79.6092 289.869 79.776 289.707C79.9428 289.545 80.0262 289.306 80.0262 288.99V286.232H81.223V288.977C81.223 289.608 81.0427 290.113 80.6821 290.491C80.3259 290.87 79.7918 291.059 79.0795 291.059ZM84.2444 287.239H82.9124V286.232H86.7801V287.239H85.4413V290.958H84.2444V287.239ZM88.5029 286.232H89.6998V290.958H88.5029V286.232ZM94.0652 291.059C93.5873 291.059 93.1546 290.956 92.7669 290.748C92.3837 290.541 92.0795 290.253 91.8541 289.883C91.6332 289.509 91.5227 289.081 91.5227 288.598C91.5227 288.116 91.6332 287.688 91.8541 287.313C92.0795 286.939 92.3837 286.649 92.7669 286.441C93.1546 286.234 93.5873 286.13 94.0652 286.13C94.5385 286.13 94.9667 286.234 95.3499 286.441C95.7376 286.649 96.0418 286.939 96.2627 287.313C96.4836 287.688 96.594 288.116 96.594 288.598C96.594 289.081 96.4836 289.509 96.2627 289.883C96.0418 290.253 95.7376 290.541 95.3499 290.748C94.9667 290.956 94.5385 291.059 94.0652 291.059ZM94.0652 289.937C94.3041 289.937 94.5227 289.883 94.721 289.775C94.9194 289.667 95.0772 289.511 95.1944 289.308C95.3116 289.105 95.3702 288.869 95.3702 288.598C95.3702 288.328 95.3116 288.093 95.1944 287.895C95.0817 287.692 94.9261 287.537 94.7278 287.428C94.5295 287.316 94.3086 287.259 94.0652 287.259C93.8172 287.259 93.5941 287.316 93.3957 287.428C93.1974 287.537 93.0396 287.692 92.9224 287.895C92.8097 288.093 92.7534 288.328 92.7534 288.598C92.7534 288.869 92.8097 289.105 92.9224 289.308C93.0396 289.511 93.1974 289.667 93.3957 289.775C93.5986 289.883 93.8217 289.937 94.0652 289.937ZM98.4184 286.232H99.6017L101.339 289.044V286.232H102.536V290.958H101.36L99.6152 288.138V290.958H98.4184V286.232Z" fill="#E2E2E2"/>
<path d="M15.0555 171.835C14.758 171.835 14.4627 171.806 14.1697 171.747C13.8767 171.693 13.6355 171.616 13.4462 171.517V170.442C13.6896 170.568 13.9421 170.663 14.2035 170.726C14.4695 170.789 14.7219 170.821 14.9608 170.821C15.1817 170.821 15.3485 170.787 15.4612 170.719C15.5739 170.652 15.6302 170.555 15.6302 170.428C15.6302 170.334 15.5987 170.253 15.5356 170.185C15.477 170.113 15.3891 170.047 15.2719 169.989C15.1547 169.93 14.9721 169.849 14.7242 169.745C14.2869 169.561 13.9691 169.356 13.7708 169.13C13.5724 168.905 13.4732 168.628 13.4732 168.298C13.4732 168.028 13.5476 167.787 13.6964 167.575C13.8496 167.363 14.0615 167.199 14.332 167.081C14.6025 166.964 14.9135 166.906 15.2651 166.906C15.5536 166.906 15.8106 166.928 16.0359 166.973C16.2613 167.018 16.4777 167.09 16.6851 167.19V168.238C16.2884 168.03 15.8894 167.927 15.4882 167.927C15.2719 167.927 15.0983 167.963 14.9676 168.035C14.8414 168.102 14.7783 168.202 14.7783 168.332C14.7783 168.463 14.8436 168.569 14.9744 168.65C15.1051 168.731 15.3462 168.842 15.6979 168.981C16.0179 169.112 16.2658 169.241 16.4416 169.367C16.622 169.493 16.7527 169.64 16.8338 169.806C16.915 169.973 16.9555 170.185 16.9555 170.442C16.9555 170.879 16.7955 171.222 16.4755 171.47C16.1599 171.713 15.6866 171.835 15.0555 171.835ZM19.7072 168.014H18.3751V167.007H22.2428V168.014H20.904V171.733H19.7072V168.014ZM23.9657 167.007H26.0889C26.6433 167.007 27.0761 167.147 27.3871 167.426C27.7027 167.706 27.8605 168.107 27.8605 168.63C27.8605 168.981 27.7838 169.281 27.6306 169.529C27.4773 169.777 27.2609 169.962 26.9814 170.084L27.8199 171.733H26.5893L25.8387 170.253H25.1625V171.733H23.9657V167.007ZM25.8793 169.245C26.1182 169.245 26.303 169.2 26.4337 169.11C26.5645 169.015 26.6298 168.855 26.6298 168.63C26.6298 168.395 26.5645 168.235 26.4337 168.15C26.3075 168.06 26.1227 168.014 25.8793 168.014H25.1625V169.245H25.8793ZM31.1437 167.007H32.3202L34.2068 171.733H32.9829L32.6042 170.76H30.8597L30.481 171.733H29.2504L31.1437 167.007ZM32.3067 169.84L31.732 168.251L31.1505 169.84H32.3067ZM36.284 168.014H34.9519V167.007H38.8196V168.014H37.4808V171.733H36.284V168.014ZM40.5425 167.007H43.8963V168.014H41.7393V168.9H43.3148V169.84H41.7393V170.726H43.8963V171.733H40.5425V167.007ZM48.0667 171.835C47.5528 171.835 47.0997 171.736 46.7076 171.537C46.3199 171.339 46.0201 171.055 45.8082 170.685C45.5964 170.311 45.4904 169.874 45.4904 169.374C45.4904 168.873 45.5964 168.438 45.8082 168.069C46.0201 167.694 46.3199 167.408 46.7076 167.21C47.0997 167.007 47.5528 166.906 48.0667 166.906C48.4093 166.906 48.7113 166.939 48.9727 167.007C49.2387 167.07 49.4844 167.174 49.7098 167.318V168.454C49.5114 168.296 49.286 168.183 49.0336 168.116C48.7857 168.044 48.4994 168.008 48.1748 168.008C47.8954 168.008 47.6452 168.064 47.4243 168.177C47.2079 168.285 47.0366 168.443 46.9104 168.65C46.7842 168.857 46.7211 169.099 46.7211 169.374C46.7211 169.802 46.845 170.14 47.093 170.388C47.3454 170.636 47.6858 170.76 48.114 170.76C48.3529 170.76 48.5535 170.719 48.7158 170.638V169.881H47.9923V169.042H49.8518V171.395C49.3694 171.688 48.7744 171.835 48.0667 171.835ZM52.9851 169.935L51.2406 167.007H52.5185L53.5869 168.839L54.7026 167.007H55.9738L54.1819 169.935V171.733H52.9851V169.935Z" fill="#E2E2E2"/>
<path d="M55.6912 59.2462H56.8678L58.7543 63.9727H57.5304L57.1518 62.999H55.4072L55.0286 63.9727H53.7979L55.6912 59.2462ZM56.8542 62.0794L56.2795 60.4904L55.698 62.0794H56.8542ZM60.8315 60.2537H59.4995V59.2462H63.3672V60.2537H62.0283V63.9727H60.8315V60.2537ZM66.4231 60.2537H65.0911V59.2462H68.9588V60.2537H67.62V63.9727H66.4231V60.2537ZM70.6817 59.2462H71.8785V63.9727H70.6817V59.2462ZM74.9321 60.2537H73.6V59.2462H77.4677V60.2537H76.1289V63.9727H74.9321V60.2537ZM81.307 64.0741C80.5948 64.0741 80.0584 63.8848 79.6977 63.5061C79.3371 63.1229 79.1568 62.6181 79.1568 61.9915V59.2462H80.3536V62.005C80.3536 62.3205 80.437 62.5595 80.6038 62.7217C80.7751 62.884 81.0095 62.9652 81.307 62.9652C81.6045 62.9652 81.8367 62.884 82.0035 62.7217C82.1703 62.5595 82.2537 62.3205 82.2537 62.005V59.2462H83.4505V61.9915C83.4505 62.6226 83.2702 63.1274 82.9096 63.5061C82.5534 63.8848 82.0193 64.0741 81.307 64.0741ZM85.3765 59.2462H87.0737C87.5921 59.2462 88.0452 59.3409 88.4328 59.5302C88.8205 59.7195 89.118 59.9923 89.3254 60.3484C89.5372 60.7 89.6432 61.1124 89.6432 61.5858C89.6432 62.3701 89.4133 62.9652 88.9535 63.3709C88.4937 63.7721 87.8558 63.9727 87.0399 63.9727H85.3765V59.2462ZM87.1413 62.9652C87.5516 62.9652 87.8648 62.8412 88.0812 62.5933C88.3021 62.3453 88.4125 62.0095 88.4125 61.5858C88.4125 61.1981 88.3021 60.8803 88.0812 60.6324C87.8648 60.3799 87.5651 60.2537 87.1819 60.2537H86.5734V62.9652H87.1413ZM91.47 59.2462H94.8238V60.2537H92.6668V61.1395H94.2423V62.0794H92.6668V62.9652H94.8238V63.9727H91.47V59.2462Z" fill="#E2E2E2"/>
<path d="M222.281 131.333L221.513 131.89V130.949L222.443 130.268H223.238V134.049H222.281V131.333Z" fill="#253966"/>
<path d="M220.422 105.989L221.022 105.442L221.282 105.21C221.495 105.022 221.657 104.873 221.769 104.761C221.884 104.649 221.978 104.535 222.05 104.42C222.126 104.305 222.164 104.191 222.164 104.079C222.164 103.744 221.974 103.576 221.596 103.576C221.412 103.576 221.23 103.609 221.049 103.674C220.873 103.739 220.708 103.829 220.557 103.944V103.03C220.719 102.918 220.909 102.832 221.125 102.77C221.341 102.705 221.572 102.673 221.817 102.673C222.099 102.673 222.342 102.725 222.548 102.83C222.753 102.934 222.91 103.079 223.018 103.262C223.126 103.446 223.181 103.654 223.181 103.885C223.181 104.162 223.116 104.406 222.986 104.615C222.86 104.82 222.654 105.053 222.369 105.313L221.888 105.751H223.3V106.535H220.422V105.989Z" fill="#253966"/>
<path d="M221.687 72.9893C221.449 72.9893 221.22 72.9695 221 72.9298C220.784 72.8902 220.598 72.8307 220.443 72.7513V71.994C220.807 72.1599 221.175 72.2428 221.546 72.2428C222.048 72.2428 222.298 72.0932 222.298 71.7939C222.298 71.6424 222.237 71.5342 222.114 71.4693C221.992 71.4008 221.801 71.3665 221.541 71.3665H221.016V70.6363H221.519C221.732 70.6363 221.896 70.6002 222.012 70.5281C222.131 70.456 222.19 70.3496 222.19 70.2089C222.19 70.0755 222.138 69.9727 222.033 69.9006C221.929 69.8285 221.781 69.7924 221.59 69.7924C221.197 69.7924 220.84 69.8934 220.519 70.0953V69.3218C220.681 69.2352 220.867 69.1685 221.076 69.1216C221.285 69.0711 221.501 69.0459 221.725 69.0459C222.219 69.0459 222.583 69.1451 222.818 69.3434C223.052 69.5382 223.169 69.814 223.169 70.1711C223.169 70.3333 223.13 70.4866 223.05 70.6309C222.974 70.7751 222.861 70.8977 222.709 70.9987C223.088 71.1646 223.277 71.4459 223.277 71.8426C223.277 72.2068 223.153 72.4899 222.904 72.6918C222.655 72.8902 222.25 72.9893 221.687 72.9893Z" fill="#253966"/>
<path d="M221.96 38.5013H220.224V37.9063L222.014 35.4991H222.961V37.744H223.496V38.5013H222.961V39.2803H221.96V38.5013ZM222.106 37.744V36.6621L221.311 37.744H222.106Z" fill="#253966"/>
</svg>
